<?xml version="1.0" encoding="UTF-8"?>
<!DOCTYPE svg PUBLIC "-//W3C//DTD SVG 1.1//EN" "http://www.w3.org/Graphics/SVG/1.1/DTD/svg11.dtd">
<!-- Creator: CorelDRAW 2019 (64-Bit) -->
<svg xmlns="http://www.w3.org/2000/svg" xml:space="preserve" width="162.56mm" height="162.56mm" version="1.1" style="shape-rendering:geometricPrecision; text-rendering:geometricPrecision; image-rendering:optimizeQuality; fill-rule:evenodd; clip-rule:evenodd"
viewBox="0 0 16255.98 16255.98"
 xmlns:xlink="http://www.w3.org/1999/xlink">
 <defs>
  <style type="text/css">
   <![CDATA[
    .fil14 {fill:#FEFEFE}
    .fil19 {fill:#A9ABAE}
    .fil20 {fill:#4B4B4D}
    .fil17 {fill:#373435}
    .fil3 {fill:#F19233}
    .fil2 {fill:#ED3237}
    .fil4 {fill:#F1BB30}
    .fil5 {fill:#FAEE35}
    .fil23 {fill:#895E35}
    .fil6 {fill:#D4DF3A}
    .fil7 {fill:#A3CD46}
    .fil8 {fill:#79C14E}
    .fil9 {fill:#2B7D75}
    .fil22 {fill:#199B50}
    .fil10 {fill:#186693}
    .fil21 {fill:#201E1E}
    .fil13 {fill:#0093DD}
    .fil12 {fill:#0F8ECF}
    .fil15 {fill:#BDE7FD}
    .fil0 {fill:white}
    .fil16 {fill:#D2D3D5;fill-rule:nonzero}
    .fil1 {fill:#606062;fill-rule:nonzero}
    .fil24 {fill:#5C4025;fill-rule:nonzero}
    .fil18 {fill:#201E1E;fill-rule:nonzero}
    .fil11 {fill:#FEFEFE;fill-rule:nonzero;fill-opacity:0.501961}
   ]]>
  </style>
 </defs>
 <g id="fondo">
  <metadata id="CorelCorpID_0Corel-Layer"/>
  <rect class="fil0" x="4814.1" y="6901.34" width="6627.79" height="2453.29"/>
 </g>
 <g id="logoitp">
  <metadata id="CorelCorpID_1Corel-Layer"/>
  <g id="_2924751727920">
   <path class="fil1" d="M1830.6 6429.37c-7.06,-1.63 -12.66,-1.54 -16.8,0.29 -4.14,1.83 -6.87,6.93 -8.19,15.3l-26.33 113.77c-1.91,8.23 -1.7,14.01 0.63,17.33 2.33,3.34 7.25,6.18 14.75,8.54l580.34 134.34c8.82,2.04 15.14,1.5 18.96,-1.65 3.83,-3.14 6.69,-8.83 8.6,-17.06l25.31 -109.37c3.41,-14.69 -2.23,-23.74 -16.94,-27.15l-580.33 -134.34zm74.27 -280.91c-9.73,2.47 -16.42,5.33 -20.06,8.56 -3.62,3.25 -6.87,9.16 -9.74,17.75l-27.25 81.57c-2.1,6.3 -2.72,11.98 -1.87,17.03 0.87,5.05 5.87,9.12 15.03,12.18l565.85 189.02c8.01,2.68 13.83,2.88 17.46,0.6 3.63,-2.29 6.78,-7.44 9.45,-15.47l23.24 -69.53c3.06,-9.17 3.3,-15.61 0.73,-19.33 -2.58,-3.73 -7.58,-6.83 -15.03,-9.31l-358.06 -119.62 437.52 -109.65c9.92,-3.04 16.64,-6.04 20.18,-8.99 3.53,-2.97 6.93,-9.31 10.18,-19.04l18.65 -55.81c2.86,-8.59 3.15,-14.69 0.86,-18.32 -2.29,-3.63 -6.87,-6.6 -13.73,-8.89l-565.86 -189.03c-6.29,-2.1 -11.83,-2.68 -16.6,-1.72 -4.77,0.95 -8.39,6.1 -10.89,15.45l-23.81 71.27c-2.29,6.86 -2.77,12.12 -1.44,15.74 1.34,3.62 6.01,6.78 14.03,9.46l326.28 109 -395.12 97.08zm533.85 -444.73c14.86,-12.93 28.19,-24.03 39.85,-33.38 11.65,-9.33 22.76,-16.46 33.3,-21.37 10.54,-4.9 20.93,-7.77 31.02,-8.64 10.22,-0.82 21.02,1.03 32.79,5.7 18.52,7.34 30.32,18.5 35.41,33.52 5.09,14.99 4.75,29.79 -1.03,44.38 -4.01,10.09 -9.52,18.29 -16.57,24.59 -7.04,6.3 -14.62,11.09 -22.74,14.36 -8.11,3.28 -16.31,5.54 -24.6,6.81 -8.29,1.25 -15.79,2.17 -22.52,2.75 -8.06,0.7 -16.58,1.71 -25.54,3.02 -8.96,1.33 -17.56,3.75 -25.79,7.31 -8.22,3.56 -15.8,8.35 -22.73,14.36 -6.92,6.01 -12.51,14.36 -16.74,25.01 -2.44,6.18 -3.99,13.36 -4.63,21.54 -0.66,8.19 0.33,16.36 2.93,24.53 2.61,8.18 7.15,15.98 13.6,23.41 6.48,7.44 15.32,13.37 26.54,17.82 14.03,5.57 31.04,8.1 51.04,7.58 20.01,-0.51 40.75,-5.76 62.24,-15.74 21.49,-9.99 42.29,-25.61 62.39,-46.85 20.11,-21.24 37.28,-49.82 51.51,-85.73 10.01,-25.24 16.63,-51.35 19.99,-78.26 3.36,-26.91 1.97,-52.46 -4.19,-76.65 -6.02,-24.13 -17.55,-46.23 -34.45,-66.24 -16.9,-20 -40.56,-36.04 -70.73,-47.99 -27.62,-10.95 -53.03,-15.66 -76.33,-14.2 -23.31,1.48 -44.81,6.59 -64.51,15.34 -19.83,8.68 -37.99,19.68 -54.58,32.89 -16.61,13.22 -31.55,25.96 -45,38.16 -19.89,17.44 -36.77,32.16 -50.63,44.2 -14,11.98 -26.5,20.99 -37.48,27.01 -11,6.04 -21.27,9.43 -30.68,10.25 -9.55,0.76 -19.87,-1.06 -31.09,-5.51 -16.98,-6.72 -28.29,-17.06 -34.12,-31.05 -5.8,-13.99 -5.82,-28.28 -0.04,-42.87 3.78,-9.54 8.89,-17.09 15.31,-22.65 6.43,-5.58 13.51,-9.92 21.22,-13.02 7.72,-3.11 15.32,-5.45 22.76,-7.05 7.45,-1.58 13.86,-2.61 19.25,-3.08 15.78,-2.18 29.78,-5.56 41.98,-10.13 12.21,-4.58 21.86,-15.85 28.98,-33.8 6.9,-17.39 7.02,-34.06 0.35,-50.02 -6.66,-15.94 -18.41,-27.25 -35.24,-33.93 -11.78,-4.67 -26.27,-6.18 -43.47,-4.57 -17.2,1.62 -34.97,7.57 -53.32,17.82 -18.35,10.26 -36.35,25.35 -53.99,45.3 -17.65,19.96 -32.91,46.19 -45.82,78.74 -10.45,26.37 -16.68,52.3 -18.81,77.75 -2.12,25.45 0.27,49.29 7.06,71.45 6.79,22.18 18.49,42.23 35.07,60.17 16.45,17.88 37.93,32.06 64.44,42.58 24.41,9.67 47.3,13.71 68.85,12.19 21.4,-1.57 40.94,-5.84 58.35,-12.89 17.54,-7.01 32.96,-15.19 46.09,-24.59 13.28,-9.33 23.52,-17.13 30.84,-23.31l44.21 -37.02zm62.67 -765.15c4.69,-9.13 5.43,-15.53 2.23,-19.21 -3.2,-3.68 -7.48,-6.9 -12.86,-9.65l-54.75 -28.12c-8.07,-4.13 -13.99,-4.8 -17.81,-2 -3.8,2.79 -7.08,6.86 -9.84,12.24l-177.79 346.29c-4.14,8.06 -5.01,14.06 -2.62,18 2.38,3.95 6.54,7.43 12.44,10.45l53.16 27.29c8.59,4.41 14.85,5.77 18.78,4.05 3.93,-1.72 7.83,-6.32 11.69,-13.85l52.5 -102.28 454.23 233.2c8.59,4.41 15.12,5.9 19.59,4.46 4.47,-1.43 8.83,-6.31 13.25,-14.9l50.58 -98.53c4.06,-7.92 5.01,-14.05 2.75,-18.25 -2.25,-4.21 -6.86,-8.11 -13.85,-11.69l-455.01 -233.61 53.33 -103.89zm51.43 -256.34c-6.29,-3.6 -11.68,-5.12 -16.17,-4.57 -4.49,0.57 -8.57,4.66 -12.25,12.29l-58.02 101.36c-4.19,7.32 -5.65,12.93 -4.38,16.78 1.26,3.86 5.16,7.99 11.66,12.42l516.98 295.93c7.86,4.5 14.06,5.8 18.63,3.89 4.57,-1.91 8.96,-6.53 13.16,-13.87l55.77 -97.42c7.49,-13.08 4.69,-23.39 -8.41,-30.88l-516.97 -295.93zm331.34 -366.21c5.54,-8.62 6.9,-14.93 4.07,-18.9 -2.82,-3.97 -6.77,-7.59 -11.85,-10.85l-51.78 -33.31c-7.61,-4.9 -13.44,-6.13 -17.51,-3.72 -4.07,2.42 -7.73,6.15 -11,11.22l-210.57 327.41c-4.9,7.61 -6.34,13.5 -4.35,17.66 1.99,4.14 5.78,8.02 11.36,11.6l50.26 32.33c8.11,5.22 14.22,7.17 18.3,5.85 4.08,-1.32 8.41,-5.53 12.98,-12.64l62.19 -96.71 429.44 276.2c8.12,5.22 14.47,7.34 19.06,6.35 4.58,-1.01 9.41,-5.44 14.64,-13.56l59.9 -93.14c4.81,-7.5 6.35,-13.5 4.51,-17.91 -1.83,-4.41 -6.04,-8.73 -12.64,-12.98l-430.19 -276.68 63.18 -98.22zm279.84 -495.42c-7.94,-6.25 -13.72,-8.68 -17.42,-7.37 -3.6,1.39 -8.06,5.36 -13.29,12.01l-50.93 64.75c-5.22,6.65 -7.51,11.76 -6.99,15.25 0.66,3.57 3.93,7.69 9.87,12.35l313.82 246.79c6.88,5.41 14.45,12.13 22.72,20.16 8.15,7.94 14.73,17.16 19.62,27.53 4.9,10.38 6.81,21.85 5.85,34.55 -0.95,12.68 -7.64,26.8 -19.95,42.45 -13.06,16.62 -25.74,27.37 -38.16,32.18 -12.43,4.82 -24.17,6.33 -35.36,4.45 -11.18,-1.89 -21.79,-5.99 -31.78,-12.32 -9.88,-6.23 -18.55,-12.29 -25.9,-18.06l-313.12 -246.23c-7.36,-5.78 -12.88,-8.02 -16.59,-6.72 -3.6,1.4 -7.88,5.13 -12.74,11.3l-72.75 92.51c-4.47,5.69 -6.56,10.56 -6.42,14.52 0.28,4.06 3.13,8.23 8.71,12.61l325.92 256.3c11.62,9.14 23.41,17.82 35.59,26.26 12.07,8.33 24.81,15.08 38.08,20.15 13.3,5.07 27.62,8.09 43,9.05 15.36,0.95 32.11,-1.05 50.2,-6.01 23.09,-6.41 45.9,-17.84 68.56,-34.2 22.64,-16.35 44.54,-38.1 65.81,-65.14 14.18,-18.03 25.55,-35.18 34.25,-51.38 8.59,-16.28 15.27,-31.37 19.94,-45.35 4.66,-13.99 7.52,-26.92 8.82,-38.56 1.29,-11.65 1.68,-21.91 1.15,-30.77 -0.57,-17.33 -3.47,-32.68 -8.72,-46.02 -5.24,-13.34 -11.74,-25.34 -19.46,-36.03 -7.72,-10.67 -16.29,-20.29 -25.69,-28.84 -9.41,-8.54 -18.98,-16.65 -28.7,-24.29l-327.94 -257.88zm403.57 -317c7.08,-7.43 9.6,-13.37 7.57,-17.79 -2.03,-4.44 -5.24,-8.74 -9.61,-12.9l-44.62 -42.41c-6.55,-6.25 -12.06,-8.56 -16.51,-6.95 -4.43,1.62 -8.74,4.6 -12.9,8.97l-268.23 282.12c-6.23,6.56 -8.76,12.07 -7.58,16.52 1.18,4.46 4.18,8.97 8.99,13.54l43.31 41.18c6.99,6.64 12.61,9.71 16.87,9.16 4.26,-0.52 9.3,-3.85 15.12,-9.98l79.23 -83.32 370.02 351.81c7,6.66 12.85,9.93 17.55,9.81 4.69,-0.12 10.25,-3.58 16.91,-10.57l76.3 -80.25c6.14,-6.46 8.78,-12.08 7.8,-16.75 -0.97,-4.67 -4.3,-9.71 -9.99,-15.12l-370.69 -352.43 80.46 -84.64zm593.17 -290.2c-31.88,-30.89 -65.42,-55.21 -100.83,-73.18 -35.41,-17.96 -71.01,-28.46 -106.89,-31.61 -35.88,-3.14 -71.21,1.1 -105.76,12.93 -34.56,11.82 -66.88,32.15 -97.05,60.84 -31.49,29.95 -54.52,62.66 -68.97,98.27 -14.44,35.61 -20.8,72.05 -19.08,109.34 1.63,37.18 11.16,74.35 28.47,111.39 17.42,37.16 42.16,72.56 74.18,106.24 33.69,35.43 69.17,62.89 106.37,82.29 37.18,19.39 74.35,30.69 111.42,33.75 37.16,3.17 73.25,-1.58 108.25,-14.25 35.01,-12.67 67.43,-33.1 97.17,-61.37 29.74,-28.29 51.99,-60.07 66.85,-95.24 14.87,-35.16 21.66,-71.8 20.16,-110.16 -1.38,-38.24 -11.39,-77.02 -29.83,-116.12 -18.55,-39.2 -46.74,-76.94 -84.46,-113.12zm-116.26 111.59c7.39,7.78 15.5,16.51 24.43,26.34 8.82,9.72 17.6,20.94 26.36,33.64 2.99,4.03 7.64,10.45 13.93,19.24 6.28,8.81 12.11,19.09 17.57,30.97 5.47,11.88 9.73,24.68 12.8,38.43 3.08,13.72 3.15,27.81 0.22,42.26 -1.38,8.19 -4.25,16.75 -8.75,25.61 -4.39,8.95 -10.35,16.92 -17.78,23.99 -15.32,14.56 -32.81,22.87 -52.5,24.94 -19.69,2.06 -39.05,-0.35 -57.98,-7.12 -12.92,-3.95 -24.84,-9.48 -35.77,-16.59 -10.92,-7.1 -21.41,-14.63 -31.66,-22.78 -7.84,-6.5 -16.83,-14.19 -26.95,-23.09 -10.23,-9 -20.87,-19.31 -32.09,-31.12 -4.68,-4.92 -11.33,-12.13 -20.05,-21.74 -8.62,-9.49 -17.42,-20.71 -26.36,-33.63 -8.87,-12.82 -17.05,-26.69 -24.57,-41.61 -7.64,-15.02 -12.71,-29.99 -15.52,-45.21 -2.82,-15.23 -2.12,-30.47 1.91,-45.95 4.01,-15.49 13.01,-29.88 27.01,-43.19 14.43,-13.72 30.33,-21.96 47.58,-24.83 17.26,-2.88 35.57,-1.14 54.94,5.22 19.37,6.35 39.5,17 60.14,31.71 20.77,14.82 41.75,32.96 63.09,54.51zm590.17 -702.06c8.36,-5.95 11.97,-11.29 10.82,-16.02 -1.14,-4.75 -3.46,-9.58 -6.95,-14.49l-35.67 -50.18c-5.25,-7.38 -10.2,-10.71 -14.87,-9.97 -4.67,0.72 -9.46,2.83 -14.38,6.32l-317.3 225.52c-7.38,5.24 -10.92,10.16 -10.61,14.75 0.3,4.6 2.38,9.6 6.23,15.01l34.61 48.72c5.59,7.86 10.53,11.94 14.81,12.23 4.28,0.3 9.86,-2 16.75,-6.9l93.72 -66.61 295.79 416.19c5.59,7.86 10.7,12.19 15.33,12.97 4.62,0.79 10.75,-1.52 18.63,-7.13l90.27 -64.15c7.25,-5.16 10.91,-10.17 10.84,-14.93 -0.05,-4.78 -2.35,-10.37 -6.89,-16.76l-296.32 -416.91 95.19 -67.66zm493.8 4.67c7.31,-4.23 12.01,-8.16 14.09,-11.8 2.09,-3.64 0.7,-9.64 -4.13,-18.01l-30.77 -53.3c-4.3,-8.68 -8.87,-12.66 -13.7,-11.96 -4.82,0.7 -10.11,2.7 -15.86,6.02l-132.49 76.49 -76.96 -133.28 159.95 -92.33c7.31,-4.23 12.12,-8.57 14.43,-13.04 2.29,-4.47 0.88,-11.14 -4.25,-20.03l-30.77 -53.31c-4.82,-8.36 -9.66,-12.2 -14.48,-11.5 -4.83,0.7 -10.65,3 -17.44,6.93l-272.83 157.51c-8.6,5.65 -13.34,11.01 -14.25,16.07 -0.91,5.05 0.78,11.92 5.09,20.58l295.11 511.18c5.13,8.89 10.18,13.1 15.16,12.67 4.97,-0.42 10.87,-2.61 17.65,-6.53l274.4 -158.42c8.37,-4.83 13.24,-9.38 14.6,-13.64 1.37,-4.28 -0.21,-10.34 -4.73,-18.18l-30.78 -53.31c-5.13,-8.89 -10.13,-13.32 -15,-13.29 -4.86,0.02 -10.44,1.83 -16.7,5.46l-161.51 93.23 -85.55 -148.18 131.72 -76.03zm345.31 -395.89c7.58,4.26 16.65,7.45 27.19,9.54 10.54,2.08 22.8,-0.43 36.79,-7.54 18.83,-9.58 30.82,-22.61 35.98,-39.11 5.14,-16.5 3.75,-32.55 -4.18,-48.15 -6.56,-12.91 -17.49,-24.45 -32.81,-34.59 -15.33,-10.16 -33.86,-17.33 -55.62,-21.5 -21.75,-4.17 -46.11,-4.49 -73.07,-0.93 -26.98,3.55 -55.26,12.85 -84.84,27.89 -35.51,18.05 -65.51,41.61 -90.1,70.5 -24.57,28.92 -42.29,61.3 -53.2,97.13 -10.89,35.83 -14,74.66 -9.47,116.19 4.52,41.54 17.97,84.29 40.39,128.41 17.99,35.38 40.47,67.95 67.46,97.74 27.05,29.91 57.57,52.99 91.69,69.49 34.12,16.51 71.69,24.84 112.72,24.97 41.03,0.13 84.68,-11.57 130.94,-35.09 30.67,-15.59 54.98,-33.37 72.92,-53.33 17.96,-19.95 31.18,-39.88 39.7,-59.77 8.49,-19.9 12.97,-38.42 13.39,-55.56 0.42,-17.14 -1.96,-30.82 -7.16,-41.05 -5.74,-11.3 -13.55,-18.33 -23.42,-21.1 -9.87,-2.76 -18.84,-2.1 -26.9,2.01 -5.92,3 -10.23,6.54 -12.89,10.61 -2.68,4.06 -6.68,11.52 -12,22.34 -4.26,8.94 -10.8,20.05 -19.62,33.33 -8.81,13.29 -23.17,24.98 -43.09,35.12 -15.06,7.65 -32.97,12.7 -53.81,14.99 -20.76,2.44 -43.54,-2.07 -68.24,-13.38 -25.31,-11.16 -48.98,-28.76 -71,-52.76 -22.02,-24.01 -42.2,-54.05 -60.52,-90.09 -26.26,-51.65 -37.36,-96.1 -33.49,-133.79 3.94,-37.54 19.89,-63.42 47.87,-77.65 16.68,-8.47 32.45,-11.07 47.31,-7.8 14.86,3.27 28.54,8.52 41,15.71 4.6,2.4 9.62,5.28 15.03,8.61 5.43,3.34 10.45,6.21 15.05,8.61zm286.17 -282.25c-8.14,-5.88 -14.61,-9.18 -19.43,-9.89 -4.82,-0.7 -11.44,0.59 -19.87,3.9l-80.08 31.39c-6.17,2.42 -10.93,5.59 -14.26,9.49 -3.33,3.89 -3.24,10.34 0.29,19.33l217.71 555.44c3.1,7.87 6.67,12.46 10.76,13.78 4.08,1.31 10.05,0.42 17.92,-2.66l68.26 -26.76c9,-3.52 14.09,-7.47 15.31,-11.83 1.2,-4.37 0.38,-10.2 -2.48,-17.5l-137.78 -351.47 364.64 265.46c8.71,5.67 15.33,8.9 19.85,9.72 4.54,0.82 11.59,-0.65 21.14,-4.39l54.79 -21.48c8.42,-3.3 13.29,-6.99 14.61,-11.08 1.32,-4.08 0.66,-9.5 -1.98,-16.23l-217.73 -555.44c-2.42,-6.19 -5.52,-10.8 -9.32,-13.86 -3.79,-3.04 -10.07,-2.53 -18.83,1.56l-69.96 27.41c-6.74,2.65 -11.08,5.65 -13.01,9 -1.92,3.34 -1.35,8.95 1.73,16.81l125.55 320.3 -327.83 -241zm1048.07 -35.26c-13.81,-42.2 -32.15,-79.35 -55.11,-111.74 -22.96,-32.4 -49.56,-58.27 -79.85,-77.78 -30.29,-19.5 -63.52,-32.22 -99.6,-37.85 -36.1,-5.63 -74.15,-2.71 -114.23,8.61 -41.81,11.82 -77.43,30.05 -106.81,54.82 -29.36,24.77 -51.97,54.05 -67.82,87.85 -15.89,33.65 -24.77,70.98 -26.71,111.82 -1.91,40.99 3.47,83.85 16.12,128.56 13.3,47.06 31.9,87.89 55.77,122.38 23.85,34.49 51.49,61.8 82.85,81.79 31.41,20.12 65.56,32.73 102.43,37.83 36.87,5.09 75.08,2.14 114.57,-9.03 39.5,-11.16 73.99,-28.91 103.52,-53.1 29.55,-24.19 52.64,-53.45 69.19,-88.08 16.58,-34.48 25.79,-73.46 27.7,-116.65 1.86,-43.33 -5.49,-89.86 -22.02,-139.43zm-154.86 44.56c2.91,10.31 6.01,21.82 9.33,34.68 3.28,12.71 5.83,26.72 7.66,42.06 0.77,4.95 1.89,12.79 3.35,23.5 1.47,10.72 1.82,22.54 1.13,35.59 -0.7,13.05 -2.89,26.38 -6.58,39.97 -3.68,13.58 -10.19,26.07 -19.51,37.49 -5.03,6.6 -11.57,12.84 -19.67,18.58 -8.05,5.88 -17.04,10.15 -26.91,12.94 -20.33,5.74 -39.69,4.95 -58.08,-2.4 -18.38,-7.35 -34.39,-18.5 -47.98,-33.32 -9.6,-9.51 -17.56,-19.96 -23.92,-31.34 -6.35,-11.36 -12.12,-22.91 -17.39,-34.9 -3.91,-9.4 -8.27,-20.39 -13.09,-32.99 -4.86,-12.74 -9.46,-26.81 -13.9,-42.48 -1.85,-6.54 -4.37,-16.01 -7.61,-28.59 -3.19,-12.42 -5.75,-26.43 -7.65,-42.04 -1.87,-15.48 -2.65,-31.56 -2.35,-48.26 0.25,-16.85 2.74,-32.45 7.34,-47.24 4.6,-14.79 12.32,-27.94 23.09,-39.77 10.77,-11.82 25.45,-20.37 44.03,-25.62 19.16,-5.42 37.07,-5.3 53.68,0.19 16.6,5.5 32,15.57 46.18,30.23 14.17,14.64 27.02,33.44 38.43,56.08 11.46,22.78 21.58,48.62 30.42,77.64zm357.32 -367.18c-1.5,-8.31 -4.36,-13.16 -8.6,-14.54 -4.24,-1.38 -9.33,-1.54 -15.27,-0.48l-114.03 20.6c-6.53,1.17 -11.22,3.25 -14.06,6.21 -2.83,2.98 -3.56,8.32 -2.16,16.04l106.48 589.77c1.88,7.02 4.3,11.94 7.27,14.78 2.96,2.84 8.6,3.51 16.92,2.01l296.66 -53.56c7.13,-1.29 11.93,-3.53 14.42,-6.75 2.49,-3.21 3.09,-8.37 1.8,-15.5l-12.38 -68.6c-1.5,-8.32 -3.92,-13.24 -7.27,-14.78 -3.35,-1.55 -8.58,-1.68 -15.71,-0.39l-163.03 29.44 -91.04 -504.25zm855.02 188.69c-5.17,-44.09 -15.79,-84.13 -31.85,-120.43 -16.1,-36.31 -37.03,-66.95 -62.85,-92.06 -25.82,-25.13 -55.87,-44.17 -90.12,-56.85 -34.26,-12.68 -72.15,-17.37 -113.66,-14.21 -43.34,3.3 -81.85,14.1 -115.56,32.56 -33.7,18.44 -61.66,42.66 -83.89,72.66 -22.26,29.83 -38.36,64.66 -48.36,104.31 -9.98,39.79 -13.22,82.87 -9.69,129.2 3.71,48.74 13.84,92.46 30.4,131 16.55,38.53 38.22,70.78 65,96.59 26.79,25.95 57.76,45.09 92.88,57.4 35.15,12.3 73.18,16.97 114.1,13.85 40.92,-3.11 78.25,-13.66 112,-31.52 33.75,-17.85 62.17,-41.95 85.26,-72.62 23.1,-30.5 39.85,-66.88 50.29,-108.83 10.41,-42.1 12.43,-89.16 6.05,-141.05zm-160.61 12.99c0.8,10.68 1.56,22.58 2.27,35.85 0.7,13.1 0.42,27.35 -0.84,42.73 -0.22,5 -0.68,12.91 -1.37,23.71 -0.69,10.79 -2.68,22.44 -5.95,35.1 -3.27,12.66 -8.07,25.28 -14.38,37.87 -6.3,12.58 -15.15,23.54 -26.55,32.89 -6.24,5.46 -13.88,10.28 -22.97,14.3 -9.06,4.17 -18.72,6.57 -28.94,7.36 -21.07,1.59 -39.87,-3.03 -56.44,-13.87 -16.56,-10.85 -30.05,-24.95 -40.43,-42.17 -7.52,-11.23 -13.25,-23.05 -17.22,-35.46 -3.99,-12.41 -7.35,-24.86 -10.13,-37.66 -1.98,-9.99 -4.08,-21.64 -6.3,-34.93 -2.23,-13.46 -3.95,-28.16 -5.19,-44.4 -0.51,-6.77 -1.11,-16.55 -1.8,-29.53 -0.67,-12.8 -0.39,-27.05 0.84,-42.73 1.24,-15.53 3.65,-31.45 7.26,-47.76 3.59,-16.46 9.12,-31.26 16.57,-44.83 7.44,-13.59 17.61,-24.96 30.52,-34.42 12.89,-9.45 28.97,-14.91 48.23,-16.37 19.85,-1.52 37.38,2.14 52.58,10.82 15.18,8.69 28.27,21.61 39.26,38.78 10.99,17.17 19.85,38.14 26.55,62.59 6.72,24.61 11.53,51.93 14.43,82.13zm597.26 147.12c-0.17,7.08 -0.79,14.32 -1.87,21.69 -1.08,7.37 -3.5,13.95 -7.26,19.6 -3.76,5.64 -9.6,10.34 -17.54,13.91 -7.93,3.6 -19.14,5.29 -33.62,4.94 -22.93,-0.54 -42.7,-6.59 -59.33,-18.31 -16.63,-11.57 -30.28,-27.59 -40.97,-47.76 -10.69,-20.33 -18.41,-44.35 -23.19,-72.39 -4.76,-28.04 -6.75,-58.57 -5.96,-91.76 0.52,-21.87 2.73,-45.21 6.64,-69.88 3.9,-24.65 10.64,-47.28 20.18,-67.57 9.53,-20.31 22.16,-37.21 37.88,-50.57 15.7,-13.36 35.63,-19.83 59.76,-19.25 11.46,0.27 21.23,2.16 29.3,5.67 8.07,3.52 15.2,8.06 21.41,13.64 6.21,5.58 11.78,12.06 16.74,19.42 4.95,7.36 9.76,15.02 14.4,22.98 3.47,6.12 6.95,12.24 10.42,18.36 3.48,6.11 7.88,11.66 13.2,16.61 5.31,4.96 11.55,9.03 18.71,12.22 7.17,3.19 15.89,4.9 26.15,5.15 18.1,0.43 33.93,-5.08 47.48,-16.54 13.55,-11.44 20.56,-26.82 21.02,-46.12 0.29,-12.08 -3.3,-26.35 -10.75,-42.83 -7.46,-16.46 -19.61,-32.16 -36.46,-47.05 -16.86,-14.88 -38.89,-27.63 -66.11,-38.24 -27.22,-10.6 -60.13,-16.38 -98.74,-17.3 -46.46,-1.09 -87.99,6.22 -124.59,22.1 -36.6,15.73 -67.76,37.93 -93.49,66.29 -25.73,28.52 -45.55,62.16 -59.46,101.21 -13.91,39.21 -21.4,81.45 -22.48,126.86 -0.71,29.87 1.59,59.95 6.9,90.27 5.32,30.3 14.45,58.89 27.4,85.62 12.95,26.86 30.18,51.12 51.7,72.92 21.52,21.79 48.12,39.02 79.81,51.85 15.53,6.7 33.21,11.95 53.05,15.6 19.84,3.63 42.43,5.69 67.77,6.29 29.57,0.7 55.56,-1.25 78.02,-6 22.45,-4.59 41.6,-10.17 57.44,-16.74 15.86,-6.57 28.7,-13.5 38.54,-20.81 9.83,-7.32 16.91,-13.19 21.25,-17.76 7.42,-7.37 12.57,-14.8 15.46,-22.12 2.9,-7.48 4.52,-18.45 4.86,-32.94l4.89 -205.44c0.19,-8.15 -0.72,-14.2 -2.74,-18.33 -2.02,-4.11 -8.15,-6.23 -18.4,-6.47l-195.49 -4.65c-7.24,-0.17 -12.55,0.9 -15.93,3.24 -3.37,2.34 -5.17,8.02 -5.39,17.08l-1.28 54.29c-0.22,9.06 1.31,14.69 4.58,16.87 3.27,2.19 9.12,3.39 17.57,3.59l70.59 1.68 -2.07 86.88zm416.35 -429.25c0.44,-7.23 -0.57,-12.73 -3.06,-16.51 -2.48,-3.79 -7.97,-5.63 -16.44,-5.55l-116.56 -7.17c-8.44,-0.52 -14.1,0.65 -17,3.5 -2.9,2.84 -4.88,8.16 -5.97,15.95l-36.56 594.57c-0.55,9.03 1.04,15.17 4.77,18.43 3.73,3.25 9.81,5.13 18.25,5.66l112.04 6.88c15.06,0.93 23.04,-6.13 23.98,-21.19l36.55 -594.57zm463.91 208.26c3.69,7.89 9.22,15.75 16.58,23.57 7.36,7.82 18.81,12.9 34.32,15.25 20.89,3.15 38.23,-0.49 52.01,-10.92 13.77,-10.44 21.98,-24.3 24.59,-41.61 2.16,-14.33 -0.04,-30.08 -6.62,-47.23 -6.56,-17.17 -17.48,-33.78 -32.77,-49.81 -15.27,-16.04 -34.92,-30.45 -58.93,-43.22 -24.02,-12.78 -52.43,-21.65 -85.25,-26.6 -39.39,-5.95 -77.49,-4.22 -114.29,5.03 -36.8,9.25 -70.04,25.29 -99.73,48.13 -29.7,22.83 -54.79,52.61 -75.23,89.05 -20.46,36.43 -34.36,79.05 -41.75,127.98 -5.92,39.24 -6.54,78.82 -1.88,118.74 4.63,40.07 16.06,76.58 34.23,109.85 18.17,33.25 43.92,61.85 77.24,85.81 33.3,23.94 75.63,39.79 126.95,47.53 34.02,5.13 64.12,4.78 90.33,-1.02 26.21,-5.81 48.55,-14.35 67.04,-25.59 18.48,-11.25 32.87,-23.73 43.19,-37.43 10.3,-13.71 16.31,-26.23 18.02,-37.56 1.89,-12.55 -0.38,-22.81 -6.8,-30.79 -6.42,-7.99 -14.11,-12.65 -23.06,-14.01 -6.57,-0.99 -12.12,-0.6 -16.66,1.15 -4.54,1.75 -12.12,5.5 -22.74,11.22 -8.67,4.79 -20.45,10.03 -35.34,15.73 -14.89,5.68 -33.39,6.87 -55.47,3.53 -16.71,-2.52 -34.22,-8.82 -52.5,-19.07 -18.32,-10.08 -34.24,-26.98 -47.77,-50.54 -14.11,-23.79 -23.16,-51.86 -27.12,-84.2 -3.98,-32.34 -2.95,-68.5 3.09,-108.48 8.64,-57.29 25.44,-99.92 50.49,-128.34 25.02,-28.27 53.04,-40.06 84.07,-35.39 18.5,2.8 32.85,9.85 43.05,21.15 10.19,11.31 18.27,23.51 24.23,36.61 2.35,4.63 4.77,9.88 7.23,15.75 2.48,5.86 4.89,11.11 7.25,15.73zm708.56 289.01c8.56,-43.56 10.71,-84.94 6.5,-124.42 -4.2,-39.48 -14.77,-75.06 -31.66,-106.87 -16.91,-31.82 -39.68,-59.14 -68.42,-81.69 -28.73,-22.55 -63.37,-38.6 -103.86,-48.3 -42.27,-10.11 -82.24,-11.6 -119.98,-4.35 -37.73,7.27 -71.76,21.77 -102.11,43.52 -30.3,21.6 -56.29,49.82 -77.94,84.51 -21.68,34.84 -37.92,74.85 -48.74,120.06 -11.38,47.54 -15.1,92.26 -11.13,134.01 3.97,41.75 14.74,79.08 32.34,111.84 17.56,32.91 41.19,60.59 70.87,83.07 29.69,22.46 64.48,38.54 104.39,48.09 39.91,9.55 78.68,10.92 116.27,4.24 37.6,-6.67 72.03,-20.91 103.39,-43.05 31.33,-21.98 58.4,-51.49 81.16,-88.24 22.8,-36.89 39.11,-81.08 48.92,-132.42zm-156.89 -36.78c-2.49,10.43 -5.42,21.98 -8.8,34.83 -3.35,12.69 -7.97,26.16 -13.88,40.42 -1.73,4.7 -4.59,12.09 -8.54,22.15 -3.97,10.08 -9.43,20.56 -16.41,31.61 -7,11.05 -15.41,21.6 -25.27,31.66 -9.85,10.05 -21.63,17.78 -35.34,23.18 -7.61,3.29 -16.38,5.55 -26.25,6.6 -9.9,1.19 -19.83,0.53 -29.8,-1.86 -20.55,-4.92 -37.04,-15.07 -49.5,-30.46 -12.45,-15.4 -20.96,-32.95 -25.59,-52.51 -3.72,-12.99 -5.56,-26.01 -5.54,-39.04 0,-13.03 0.6,-25.92 1.87,-38.95 1.18,-10.11 2.74,-21.84 4.69,-35.18 1.99,-13.49 4.84,-28.01 8.64,-43.86 1.58,-6.61 4.01,-16.11 7.32,-28.66 3.27,-12.4 7.9,-25.87 13.87,-40.42 5.93,-14.41 13.1,-28.83 21.52,-43.26 8.45,-14.58 18.25,-26.97 29.49,-37.63 11.23,-10.65 24.4,-18.35 39.57,-23.4 15.18,-5.06 32.15,-5.36 50.94,-0.85 19.37,4.63 34.93,13.48 46.74,26.39 11.8,12.91 20.31,29.22 25.53,48.92 5.21,19.71 7.23,42.39 6.12,67.72 -1.12,25.48 -4.91,52.97 -11.38,82.6z"/>
   <path class="fil1" d="M10127.61 2384.14c-3.48,9.34 -5.37,17 -5.73,23.15 -0.36,6.15 3.71,12.5 12.33,18.77 6.5,5 15.24,10.5 26.25,16.37 10.97,6.02 22.32,11.86 34.12,17.39 11.72,5.66 23.19,10.74 34.4,15.24 11.2,4.49 20.21,8 26.99,10.53 10.18,3.79 26.23,9.13 48.15,16 21.9,6.88 46.83,12.14 74.83,15.65 28,3.51 58.13,3.47 90.38,-0.14 32.31,-3.74 64.07,-13.8 95.4,-30.46 9.69,-5.25 20.67,-12.26 33.01,-21.2 12.35,-8.93 24.97,-20.32 37.91,-34.34 12.96,-14 25.62,-30.71 37.94,-49.94 12.32,-19.25 23.44,-42.15 33.29,-68.59 11.9,-31.95 19.38,-61.53 22.43,-88.74 2.99,-27.06 3.52,-51.35 1.55,-72.85 -1.98,-21.51 -5.76,-40.3 -11.3,-56.53 -5.6,-16.1 -10.96,-29.37 -16.25,-39.38 -13,-25.62 -28.94,-47.66 -47.87,-65.99 -18.93,-18.32 -38.11,-33.84 -57.58,-46.41 -19.47,-12.57 -38.07,-22.71 -55.75,-30.59 -17.67,-7.87 -32.16,-13.92 -43.47,-18.14 -14.15,-5.27 -29.01,-10.32 -44.59,-15.16 -15.59,-4.84 -30.57,-9.14 -45.06,-12.6 -14.49,-3.47 -27.61,-6.27 -39.49,-8.12 -11.86,-1.83 -20.72,-2.72 -26.65,-2.36 -7.01,-0.19 -12.41,1.34 -16.1,4.31 -3.73,3.12 -7.08,8.64 -10.18,16.97l-188.96 507.16zm317.91 -404.68c5.51,0.77 9.96,1.78 13.36,3.05 3.95,1.47 7.91,2.94 11.87,4.42 21.49,8.01 40.43,19.41 56.81,34.21 16.39,14.8 28.74,33.08 37.04,54.85 8.37,21.64 12.01,47.31 11.04,76.73 -1,29.43 -8.41,62.73 -22.21,99.77 -10.54,28.29 -23.66,53.98 -39.36,77.12 -15.65,22.98 -34.05,41.25 -55.19,54.79 -21.15,13.53 -45.43,21.22 -72.91,23.23 -27.42,1.86 -58.37,-4.52 -92.8,-19.28l152.35 -408.89zm611.16 562.22c7.49,3.91 13.34,5.76 17.52,5.56 4.19,-0.19 8.51,-4.58 12.98,-13.15l28.44 -54.59c5,-8.29 5.91,-14.27 2.74,-17.98 -3.19,-3.69 -7.72,-7.08 -13.61,-10.14l-135.67 -70.7 71.12 -136.49 163.78 85.35c7.49,3.91 13.74,5.62 18.74,5.17 5,-0.46 9.88,-5.23 14.62,-14.33l28.44 -54.59c4.46,-8.56 5.1,-14.69 1.92,-18.39 -3.17,-3.7 -8.24,-7.37 -15.19,-10.99l-279.38 -145.59c-9.38,-4.2 -16.45,-5.34 -21.21,-3.39 -4.75,1.95 -9.63,7.07 -14.63,15.34l-272.77 523.45c-4.74,9.1 -5.59,15.64 -2.56,19.59 3.04,3.98 8.04,7.77 14.99,11.39l281 146.42c8.57,4.47 15.02,6.12 19.35,4.98 4.34,-1.14 8.6,-5.72 12.79,-13.75l28.44 -54.6c4.75,-9.08 5.8,-15.68 3.17,-19.78 -2.63,-4.1 -7.15,-7.81 -13.58,-11.16l-165.38 -86.18 79.06 -151.74 134.88 70.29zm427.2 -153.7c4.23,-7.31 5.16,-12.86 2.82,-16.67 -2.34,-3.78 -6.13,-7.19 -11.35,-10.2l-100.4 -57.89c-5.74,-3.31 -10.66,-4.75 -14.74,-4.32 -4.08,0.43 -8.08,4.05 -12,10.85l-299.36 519.18c-3.1,6.58 -4.44,11.9 -4,15.98 0.43,4.08 4.31,8.23 11.63,12.46l261.16 150.58c6.27,3.62 11.39,5.01 15.37,4.16 3.97,-0.85 7.75,-4.4 11.38,-10.68l34.82 -60.39c4.21,-7.32 5.54,-12.64 3.99,-15.98 -1.56,-3.34 -5.47,-6.81 -11.75,-10.43l-143.51 -82.76 255.94 -443.89zm111.63 780.17c-6.04,8.1 -8.18,14.23 -6.47,18.51 1.69,4.28 5.81,8.86 12.59,13.91l88.03 65.67c6.78,5.06 12.19,7.39 16.47,7.21 4.29,-0.2 8.96,-3.68 14.01,-10.45l135.34 -181.41c9.3,7.7 17.02,14.02 23.24,19.05 6.12,4.93 11.83,9.39 17.15,13.35 59.26,44.21 116.22,65.24 170.93,63.33 54.7,-1.92 101.16,-28.63 139.33,-79.78 18.41,-24.67 30.27,-48.39 35.67,-71.28 5.4,-22.89 6.56,-44.61 3.36,-65.07 -3.19,-20.45 -10.09,-39.71 -20.61,-57.91 -10.51,-18.2 -22.41,-34.8 -35.7,-49.8 -13.19,-15.11 -27.14,-28.71 -41.65,-41.05 -14.52,-12.33 -27.59,-22.84 -39.2,-31.5 -10.64,-7.93 -22.31,-16.27 -35.01,-24.98 -12.69,-8.72 -25.33,-17.01 -37.89,-24.89 -12.59,-7.88 -24.27,-14.91 -35.29,-20.85 -10.98,-5.96 -19.69,-10.18 -26.1,-12.7 -8.21,-3.12 -14.7,-4.01 -19.65,-2.42 -4.94,1.57 -10.39,6.35 -16.44,14.46l-342.11 458.6zm438.14 -325.4c7.76,3.72 15.68,8.49 23.43,14.26 17.54,13.09 29.88,26.06 36.94,39.06 7.04,12.78 10.63,25.62 10.63,38.23 -0.09,12.74 -2.62,24.97 -7.94,36.63 -5.21,11.53 -11.7,22.51 -19.37,32.79 -20.48,27.45 -42.71,43.62 -66.62,48.18 -23.92,4.55 -50.51,-3.98 -79.77,-25.82 -3.87,-2.87 -7.28,-5.61 -10.26,-8.2 -3.08,-2.68 -6.55,-5.84 -10.54,-9.57l123.5 -165.56zm679.72 474.55c6.69,-7.58 9.44,-13.2 8.36,-16.98 -1.2,-3.66 -4.91,-8.35 -11.25,-13.94l-61.75 -54.53c-6.34,-5.59 -11.31,-8.16 -14.82,-7.84 -3.61,0.44 -7.91,3.48 -12.9,9.15l-264.21 299.3c-5.78,6.56 -12.93,13.74 -21.42,21.54 -8.39,7.68 -17.96,13.73 -28.59,18.03 -10.65,4.3 -22.21,5.56 -34.83,3.88 -12.61,-1.68 -26.33,-9.16 -41.26,-22.33 -15.84,-13.99 -25.85,-27.26 -29.96,-39.94 -4.11,-12.68 -4.94,-24.49 -2.43,-35.55 2.52,-11.06 7.22,-21.4 14.11,-31.02 6.78,-9.52 13.31,-17.84 19.51,-24.84l263.6 -298.64c6.19,-7 8.74,-12.41 7.65,-16.18 -1.19,-3.67 -4.67,-8.16 -10.56,-13.35l-88.23 -77.88c-5.43,-4.8 -10.18,-7.17 -14.13,-7.25 -4.07,0.05 -8.39,2.66 -13.08,7.98l-274.39 310.85c-9.79,11.08 -19.13,22.36 -28.24,34.04 -9.01,11.57 -16.47,23.89 -22.28,36.88 -5.83,12.98 -9.65,27.11 -11.48,42.4 -1.83,15.3 -0.77,32.12 3.14,50.48 5.1,23.41 15.22,46.82 30.26,70.37 15.04,23.55 35.51,46.64 61.3,69.41 17.19,15.17 33.68,27.51 49.34,37.11 15.78,9.5 30.47,17.03 44.17,22.48 13.69,5.46 26.43,9.05 37.99,11 11.56,1.96 21.77,2.92 30.65,2.9 17.34,0.41 32.82,-1.62 46.44,-6.1 13.61,-4.48 25.97,-10.28 37.07,-17.39 11.1,-7.1 21.19,-15.1 30.26,-24 9.06,-8.91 17.69,-18 25.87,-27.27l276.09 -312.77zm285.88 420.1c7.11,7.39 12.94,10.17 17.44,8.34 4.53,-1.83 8.97,-4.83 13.31,-9.02l44.39 -42.65c6.53,-6.27 9.09,-11.66 7.68,-16.18 -1.4,-4.51 -4.19,-8.94 -8.37,-13.28l-269.72 -280.69c-6.28,-6.53 -11.67,-9.31 -16.17,-8.33 -4.51,0.98 -9.15,3.77 -13.93,8.37l-43.08 41.4c-6.96,6.69 -10.28,12.17 -9.94,16.45 0.35,4.27 3.44,9.46 9.3,15.55l79.66 82.9 -368.16 353.78c-6.96,6.69 -10.49,12.38 -10.58,17.08 -0.09,4.69 3.1,10.41 9.79,17.37l76.74 79.85c6.17,6.42 11.66,9.31 16.37,8.55 4.71,-0.77 9.9,-3.86 15.56,-9.3l368.8 -354.4 80.91 84.21zm414.91 372.88c7.8,-6.43 11.39,-11.56 10.91,-15.46 -0.6,-3.82 -3.54,-9.03 -8.93,-15.53l-52.47 -63.52c-5.39,-6.5 -9.9,-9.83 -13.41,-10.05 -3.63,-0.13 -8.35,2.2 -14.17,7.01l-307.75 254.32c-6.74,5.57 -14.92,11.55 -24.53,17.92 -9.49,6.29 -19.88,10.76 -31.06,13.35 -11.17,2.58 -22.8,2.01 -34.99,-1.62 -12.2,-3.62 -24.58,-13.16 -37.26,-28.52 -13.47,-16.27 -21.28,-30.95 -23.36,-44.12 -2.07,-13.16 -1.06,-24.95 3.15,-35.48 4.23,-10.54 10.49,-20.03 18.79,-28.44 8.18,-8.34 15.95,-15.54 23.15,-21.49l307.05 -253.75c7.21,-5.96 10.57,-10.88 10.09,-14.79 -0.61,-3.81 -3.34,-8.78 -8.34,-14.83l-74.97 -90.72c-4.61,-5.59 -8.94,-8.68 -12.83,-9.37 -4.02,-0.58 -8.7,1.31 -14.17,5.84l-319.61 264.12c-11.4,9.42 -22.39,19.1 -33.22,29.21 -10.69,10.02 -19.99,21.04 -27.76,32.95 -7.78,11.91 -13.77,25.26 -17.97,40.08 -4.19,14.82 -5.79,31.61 -4.79,50.35 1.37,23.92 7.71,48.63 18.88,74.24 11.18,25.6 27.79,51.62 49.7,78.13 14.61,17.68 28.97,32.44 42.94,44.38 14.09,11.84 27.42,21.58 40.1,29.1 12.68,7.53 24.69,13.07 35.81,16.8 11.1,3.74 21.04,6.29 29.81,7.66 17.07,3.12 32.68,3.54 46.82,1.24 14.15,-2.29 27.27,-6.09 39.35,-11.38 12.08,-5.27 23.28,-11.61 33.63,-18.98 10.35,-7.38 20.29,-15.01 29.83,-22.89l321.58 -265.76zm-157.87 840.71c-6.62,4.2 -10.74,8.42 -12.35,12.64 -1.61,4.24 0.25,10.57 5.4,18.72l52.14 82.37c4.52,7.14 8.93,11.84 13.05,13.87 4.14,2.03 10.03,0.62 17.69,-4.23l505.66 -319.98c7.65,-4.84 11.31,-9.48 11.01,-13.93 -0.32,-4.44 -2.24,-9.47 -5.8,-15.08l-61.08 -96.52c-4.51,-7.14 -8.98,-11.64 -13.2,-13.24 -4.23,-1.61 -10.73,-1.43 -19.34,0.46l-374.01 71.5 223.49 -307.65c5.59,-7.83 8.7,-13.91 9.22,-18.16 0.52,-4.27 -2.04,-10.85 -7.53,-19.52l-61.07 -96.52c-4.52,-7.14 -9.04,-10.89 -13.55,-11.24 -4.51,-0.37 -9.57,1.23 -15.19,4.79l-504.13 319c-6.62,4.2 -10.54,8.46 -11.73,12.79 -1.19,4.32 0.64,10.31 5.48,17.96l37.27 58.9c4.53,7.14 8.9,11.52 13.13,13.12 4.23,1.61 10.68,-0.33 19.36,-5.81l319.12 -201.95 -243.89 327.89c-5.78,8.66 -8.36,15.28 -7.64,19.83 0.74,4.54 3.2,10.12 7.39,16.75 3.55,5.61 7.02,9.13 10.43,10.54 3.39,1.42 9.48,1.15 18.09,-0.74l402.48 -78.98 -319.9 202.42zm270.97 501.67c-6.08,6.62 -9.26,11.89 -9.57,15.8 -0.32,3.93 1.35,9.36 5.01,16.29l55.82 105.67c2.78,3.98 5.78,7.7 8.95,11.13 3.19,3.45 7.98,3.47 14.38,0.09 3.74,-1.97 7.05,-4.75 9.94,-8.32l426.69 -459.85c5.52,-6.33 8.65,-11.38 9.38,-15.18 0.72,-3.81 -0.89,-9.44 -4.83,-16.91l-32.99 -62.44c-3.95,-7.47 -7.69,-11.97 -11.23,-13.51 -3.55,-1.55 -9.49,-1.81 -17.84,-0.83l-619.58 90.79c-8.89,1.28 -14.39,2.48 -16.53,3.61 -4.8,2.53 -7.15,5.83 -7.07,9.87 0.09,4.05 1.26,8.21 3.52,12.48l36.78 69.63c3.95,7.48 7.9,12.05 11.85,13.72 3.96,1.67 9.69,1.88 17.22,0.62l133.12 -23.21 80.77 152.89 -93.79 97.66zm100.53 -267.09l205.19 -41.83 -149.37 147.49 -55.82 -105.66zm696.9 660.11c10.74,1.07 18.08,0.86 22.03,-0.64 5.64,-2.15 8.13,-5.36 7.47,-9.62 -0.65,-4.28 -1.52,-7.82 -2.59,-10.64l-30.62 -80.38c-3,-7.89 -6.31,-12.76 -9.93,-14.62 -3.6,-1.85 -10.11,-3.24 -19.51,-4.19l-218.79 -17.42 154.86 -152.95c6.96,-7.18 10.88,-12.54 11.79,-16.1 0.89,-3.59 -0.15,-9.31 -3.16,-17.22l-45.43 -119.28c-1.3,-3.38 -3.42,-7.26 -6.38,-11.62 -2.95,-4.36 -7.81,-5.26 -14.57,-2.69 -2.83,1.09 -5.06,2.42 -6.72,4.02 -1.64,1.6 -4.31,4.38 -7.95,8.36l-243.74 260.43 -249.56 95.06c-7.91,3 -12.2,6.58 -12.88,10.72 -0.68,4.14 0.15,9.3 2.51,15.5l42.54 111.68c3.01,7.89 6.41,12.57 10.19,14.04 3.79,1.45 9.63,0.69 17.53,-2.32l241.11 -91.83 361.8 31.71zm-75.97 688.29c42.14,-13.96 79.22,-32.41 111.55,-55.47 32.32,-23.08 58.11,-49.76 77.51,-80.1 19.41,-30.36 32.02,-63.63 37.53,-99.74 5.51,-36.1 2.47,-74.16 -8.99,-114.18 -11.96,-41.78 -30.3,-77.34 -55.16,-106.63 -24.87,-29.29 -54.22,-51.81 -88.08,-67.55 -33.71,-15.77 -71.05,-24.54 -111.91,-26.34 -41,-1.77 -83.83,3.75 -128.51,16.54 -46.99,13.45 -87.77,32.18 -122.18,56.16 -34.42,23.97 -61.64,51.7 -81.52,83.12 -20.02,31.47 -32.52,65.66 -37.5,102.56 -4.97,36.89 -1.89,75.09 9.4,114.54 11.29,39.45 29.15,73.89 53.45,103.35 24.28,29.46 53.61,52.45 88.29,68.89 34.54,16.48 73.55,25.55 116.74,27.32 43.34,1.72 89.84,-5.78 139.38,-22.47zm-45.08 -154.72c-10.3,2.95 -21.8,6.09 -34.65,9.45 -12.7,3.32 -26.71,5.92 -42.03,7.79 -4.95,0.79 -12.78,1.93 -23.49,3.44 -10.73,1.49 -22.54,1.88 -35.59,1.24 -13.06,-0.66 -26.39,-2.81 -39.99,-6.46 -13.59,-3.64 -26.11,-10.09 -37.56,-19.38 -6.62,-5.01 -12.87,-11.52 -18.64,-19.62 -5.91,-8.03 -10.21,-17 -13.03,-26.87 -5.81,-20.3 -5.07,-39.66 2.21,-58.07 7.29,-18.4 18.38,-34.46 33.16,-48.09 9.48,-9.63 19.91,-17.63 31.26,-24.01 11.35,-6.4 22.88,-12.21 34.86,-17.52 9.38,-3.94 20.36,-8.34 32.93,-13.2 12.74,-4.9 26.78,-9.54 42.45,-14.03 6.53,-1.87 15.99,-4.42 28.56,-7.71 12.41,-3.23 26.42,-5.83 42.02,-7.78 15.45,-1.92 31.55,-2.76 48.25,-2.51 16.85,0.19 32.46,2.63 47.25,7.18 14.8,4.56 27.99,12.24 39.85,22.97 11.86,10.73 20.45,25.38 25.76,43.94 5.49,19.15 5.44,37.06 -0.02,53.67 -5.44,16.63 -15.46,32.07 -30.07,46.29 -14.6,14.22 -33.35,27.13 -55.95,38.61 -22.75,11.54 -48.55,21.74 -77.54,30.67z"/>
   <path class="fil1" d="M2899.84 14436.59c10.69,0 16.69,-3 18.02,-9.01 0.67,-2 1.01,-15.03 1.01,-39.06 0,-6.67 -1.52,-10.84 -4.52,-12.52 -3.01,-1.66 -7.84,-2.5 -14.51,-2.5l-228.32 0 0 -241.32 270.36 0c11.36,0 17.38,-3.68 18.03,-11.03 0.68,-2 1,-14.67 1,-38.05 0,-6.66 -1.49,-10.84 -4.5,-12.52 -3.01,-1.67 -7.84,-2.49 -14.53,-2.49l-348.47 0c-8.01,0 -13.36,1.66 -16.03,4.99 -2.66,3.36 -4,9.68 -4,19.04l0 664.91c0,8.02 1.34,13.03 4,15.03 2.67,2 8.02,3.01 16.03,3.01l348.47 0c6.69,0 11.52,-1.01 14.53,-3.01 3.01,-2 4.5,-6.34 4.5,-13.03l0 -32.04c0,-7.34 -1.32,-11.84 -3.99,-13.52 -2.67,-1.67 -7.69,-2.49 -15.04,-2.49l-270.36 0 0 -274.39 228.32 0zm122.17 320.44c0,8.02 1,13.03 3,15.03 2.02,2 7.35,3.01 16.03,3.01l51.06 0c7.35,0 12.36,-1.19 15.02,-3.52 2.68,-2.34 4.01,-7.17 4.01,-14.52l0 -732c0,-7.35 -1.16,-11.86 -3.49,-13.53 -2.34,-1.66 -7.52,-2.5 -15.54,-2.5l-50.06 0c-7.35,0 -12.51,0.84 -15.53,2.5 -3,1.67 -4.5,6.18 -4.5,13.53l0 732zm3251.99 -373.51c10,20.02 24.02,30.05 42.04,30.05 10.02,0 19.37,-3.51 28.05,-10.52 8.68,-7.01 13.02,-17.53 13.02,-31.54 0,-10.68 -3.68,-23.2 -11.03,-37.55 -7.34,-14.35 -18.34,-28.39 -33.03,-42.07 -14.69,-13.68 -32.72,-25.03 -54.09,-34.05 -21.35,-9 -45.72,-13.51 -73.1,-13.51 -70.09,0 -124.83,25.53 -164.21,76.61 -39.39,51.06 -59.1,117.66 -59.1,199.77 0,38.05 4.85,73.27 14.54,105.64 9.66,32.39 23.52,60.59 41.54,84.63 18.03,24.03 40.23,42.72 66.6,56.07 26.37,13.36 55.92,20.03 88.61,20.03 32.07,0 60.25,-6.01 84.63,-18.03 24.37,-12.02 44.23,-27.03 59.59,-45.05 15.35,-18.03 26.69,-36.39 34.04,-55.08 7.34,-18.71 11.01,-34.06 11.01,-46.07 0,-9.35 -2.5,-15.68 -7.51,-19.03 -5,-3.33 -9.52,-5.01 -13.51,-5.01 -5.34,0 -9.68,1.68 -13.03,5.01 -3.33,3.35 -8.34,10.36 -15.02,21.04 -0.65,1.33 -0.99,2 -0.99,2l0 0c-13.36,22.04 -26.37,38.72 -39.05,50.06 -10.68,9.35 -22.7,16.69 -36.05,22.04 -13.36,5.33 -28.05,8.01 -44.06,8.01 -40.73,0 -75.95,-19.02 -105.65,-57.08 -29.72,-38.05 -44.57,-91.79 -44.57,-161.21 0,-57.42 12.69,-103 38.04,-136.7 25.38,-33.72 56.1,-50.58 92.13,-50.58 26.05,0 45.74,6.68 59.1,20.04 13.35,13.34 26.71,33.38 40.04,60.07l1.02 2.01zm579.79 129.18c-0.67,-30.04 -5.68,-60.76 -15.01,-92.13 -9.35,-31.38 -23.54,-60.41 -42.57,-87.11 -19.02,-26.72 -42.9,-48.25 -71.61,-64.6 -28.7,-16.35 -61.74,-24.53 -99.13,-24.53 -35.38,0 -67.25,7.34 -95.63,22.03 -28.37,14.68 -52.58,34.88 -72.6,60.59 -20.02,25.69 -35.21,54.9 -45.56,87.62 -10.36,32.7 -15.53,66.75 -15.53,102.13 0,34.05 5.01,67.26 15.03,99.63 10.01,32.39 24.86,61.44 44.57,87.12 19.68,25.72 44.05,46.08 73.1,61.09 29.03,15.03 61.58,22.54 97.62,22.54 35.4,0 67.27,-7.69 95.64,-23.04 28.37,-15.35 52.4,-35.88 72.1,-61.58 19.69,-25.7 34.54,-55.08 44.57,-88.12 10,-33.04 15.01,-66.92 15.01,-101.64zm-95.12 -7.01c0,70.1 -12.02,124.34 -36.06,162.73 -24.03,38.38 -54.74,57.57 -92.13,57.57 -38.05,0 -71.09,-20.36 -99.13,-61.09 -28.04,-40.72 -42.07,-94.78 -42.07,-162.22 0,-60.08 11.86,-108.82 35.55,-146.2 23.7,-37.37 55.25,-56.08 94.63,-56.08 36.05,0 67.6,17.86 94.64,53.58 27.03,35.72 41.88,86.29 44.57,151.71zm160.2 250.35c0,8 1.33,13.17 4.01,15.51 2.67,2.33 7.34,3.52 14.02,3.52l51.08 0c8,0 13.34,-1.19 16.01,-3.52 2.68,-2.34 4.01,-7.51 4.01,-15.51l0 -350.5c0,-12.67 0.84,-24.53 2.5,-35.54 1.67,-11.01 5.51,-22.19 11.52,-33.54 6.01,-11.35 15.85,-20.71 29.54,-28.04 13.68,-7.34 31.88,-11.01 54.58,-11.01 22.02,0 39.71,4.32 53.07,13.01 13.35,8.69 23.19,19.53 29.54,32.54 6.35,13.02 10.18,25.87 11.52,38.55 1.33,12.7 1.99,25.71 1.99,39.06l0 336.46c0,8.02 1.34,13.03 4.01,15.03 2.68,2 8.01,3.01 16.02,3.01l52.08 0c7.34,0 12.02,-1.35 14.01,-4.02 2,-2.66 3.01,-7.67 3.01,-15.01l0 -350.5c0,-20.02 1.51,-35.87 4.5,-47.54 3.01,-11.7 10.86,-23.22 23.54,-34.57 7.34,-6.66 16.87,-12.17 28.55,-16.52 11.67,-4.33 25.19,-6.51 40.54,-6.51 22.03,0 39.89,3.83 53.58,11.52 13.69,7.69 23.53,17.86 29.55,30.54 6,12.68 9.68,25.54 11.01,38.55 1.33,13.01 2.34,28.89 3,47.58l0 0.99 0 326.46c0,8 1.34,13.17 4.01,15.51 2.67,2.33 7.35,3.52 14.02,3.52l53.08 0c7.33,-0.67 12.18,-2.34 14.51,-5.01 2.34,-2.69 3.51,-7.35 3.51,-14.02l0 -350.5c0,-20.67 -1.17,-39.04 -3.51,-55.07 -2.33,-16.01 -8.51,-32.38 -18.53,-49.07 -10.01,-16.69 -26.37,-30.36 -49.06,-41.05 -22.71,-10.68 -53.08,-16.02 -91.14,-16.02 -24.03,0 -44.89,1.84 -62.58,5.5 -17.69,3.68 -32.54,8.51 -44.56,14.52 -12.02,6 -21.7,12.02 -29.04,18.02 -7.35,6.01 -15.02,13.36 -23.02,22.05l0 0c-5.35,-7.35 -11.2,-14.02 -17.53,-20.03 -6.34,-6.01 -15.35,-12.2 -27.05,-18.52 -11.68,-6.35 -26.37,-11.52 -44.06,-15.54 -17.68,-4 -38.21,-6 -61.58,-6 -29.37,0 -59.25,3.66 -89.61,11.01 -30.39,7.35 -53.58,17.03 -69.62,29.05 -10.67,8.01 -17.5,16.69 -20.52,26.03 -3,9.35 -4.51,23.7 -4.51,43.06l0 402.56zm1178.64 -243.34c-0.67,-30.04 -5.68,-60.76 -15.01,-92.13 -9.35,-31.38 -23.54,-60.41 -42.57,-87.11 -19.02,-26.72 -42.9,-48.25 -71.61,-64.6 -28.7,-16.35 -61.74,-24.53 -99.13,-24.53 -35.38,0 -67.26,7.34 -95.63,22.03 -28.37,14.68 -52.58,34.88 -72.6,60.59 -20.02,25.69 -35.21,54.9 -45.56,87.62 -10.36,32.7 -15.53,66.75 -15.53,102.13 0,34.05 5.01,67.26 15.03,99.63 10,32.39 24.86,61.44 44.57,87.12 19.68,25.72 44.05,46.08 73.1,61.09 29.03,15.03 61.58,22.54 97.62,22.54 35.39,0 67.27,-7.69 95.63,-23.04 28.38,-15.35 52.41,-35.88 72.11,-61.58 19.69,-25.7 34.54,-55.08 44.57,-88.12 10,-33.04 15.01,-66.92 15.01,-101.64zm-95.13 -7.01c0,70.1 -12.01,124.34 -36.05,162.73 -24.03,38.38 -54.74,57.57 -92.13,57.57 -38.05,0 -71.09,-20.36 -99.13,-61.09 -28.04,-40.72 -42.07,-94.78 -42.07,-162.22 0,-60.08 11.86,-108.82 35.55,-146.2 23.7,-37.37 55.25,-56.08 94.63,-56.08 36.05,0 67.6,17.86 94.64,53.58 27.03,35.72 41.88,86.29 44.56,151.71zm3295.03 -476.67c0,-8.67 -1.5,-14.17 -4.49,-16.51 -3.02,-2.34 -8.19,-3.51 -15.54,-3.51l-51.06 0c-8.01,0 -13.18,1.5 -15.53,4.52 -2.33,2.99 -3.5,8.83 -3.5,17.52l0 246.32c-16.69,-10 -33.21,-18 -49.56,-24.02 -16.36,-6 -36.22,-9.01 -59.6,-9.01 -37.36,0 -70.76,8.18 -100.13,24.53 -29.36,16.35 -54.23,38.39 -74.6,66.09 -20.36,27.72 -35.56,58.58 -45.56,92.63 -10.02,34.04 -15.03,68.76 -15.03,104.15 0,81.43 21.2,144.36 63.58,188.75 42.41,44.4 99.65,66.6 171.74,66.6 15.36,0 31.72,-1 49.07,-3.02 17.38,-1.99 34.9,-5.49 52.59,-10.5 17.68,-5.01 34.03,-11.52 49.06,-19.52 15.02,-8.02 26.53,-17.7 34.55,-29.05 6,-8 9.84,-16.19 11.51,-24.53 1.68,-8.35 2.5,-18.87 2.5,-31.54l0 -639.9zm-90.12 616.86l0 1c0,9.35 -0.83,18.2 -2.5,26.55 -1.67,8.34 -5.34,16.51 -11.01,24.53 -5.69,8.01 -14.53,14.52 -26.55,19.53 -12.02,4.99 -28.37,7.5 -49.07,7.5 -49.39,0 -89.27,-19.2 -119.66,-57.57 -30.36,-38.39 -45.56,-91.63 -45.56,-159.73 0,-29.38 3.84,-57.07 11.52,-83.12 7.67,-26.03 18.69,-48.73 33.05,-68.09 14.35,-19.37 31.2,-34.22 50.56,-44.56 19.37,-10.35 40.38,-15.52 63.09,-15.52 22.03,0 40.22,3.34 54.57,10.01 14.35,6.68 28.21,15.69 41.56,27.05l0 312.42zm534.74 -191.27l0.99 0c8.69,-1.33 15.54,-3.99 20.55,-8 4.99,-4.01 7.5,-12.02 7.5,-24.04 0,-13.35 -3.02,-29.7 -9.02,-49.07 -6,-19.36 -16.02,-38.88 -30.04,-58.57 -14.02,-19.7 -33.88,-36.39 -59.58,-50.08 -25.71,-13.67 -56.91,-20.52 -93.63,-20.52 -28.7,0 -54.23,4.35 -76.61,13.01 -22.36,8.69 -40.88,19.36 -55.58,32.04 -14.67,12.7 -26.03,24.53 -34.03,35.56 -8.02,11.02 -14.36,21.2 -19.03,30.54 -10.68,19.37 -19.03,42.4 -25.03,69.09 -6.02,26.71 -9.03,57.42 -9.03,92.13 0,28.05 2.34,55.08 7.01,81.12 4.68,26.04 13.02,50.39 25.03,73.1 10.69,22.03 23.54,40.55 38.57,55.58 15.01,15.02 30.87,27.04 47.56,36.04 16.69,9.01 33.56,15.36 50.57,19.03 17.02,3.67 33.54,5.51 49.58,5.51 36.03,0 67.08,-7.18 93.12,-21.54 26.04,-14.35 46.9,-31.86 62.59,-52.56 15.69,-20.71 27.03,-40.57 34.04,-59.6 7,-19.01 10.52,-32.87 10.52,-41.54 0,-9.36 -2.17,-15.69 -6.51,-19.03 -4.35,-3.34 -8.85,-5.01 -13.52,-5.01 -6,0 -10.52,1.67 -13.53,5.01 -2.99,3.34 -8.17,11.35 -15.51,24.02 -17.37,28.05 -37.55,49.75 -60.59,65.1 -23.03,15.36 -48.89,23.04 -77.6,23.04 -40.72,0 -75.78,-17.71 -105.14,-53.08 -29.38,-35.38 -46.07,-86.12 -50.09,-152.22l306.44 -45.06zm-306.44 -3.99c5.36,-46.07 19.04,-82.45 41.06,-109.15 22.04,-26.71 52.41,-40.07 91.14,-40.07 28.02,0 52.24,10.68 72.6,32.06 20.36,21.36 31.87,48.05 34.54,80.11l-239.34 37.05zm-7819.74 30.87c19.34,10.02 36.21,19.19 50.57,27.37 14.35,8.18 26.19,16.69 35.55,25.52 9.35,8.85 16.52,18.37 21.53,28.39 5,10.18 7.5,22.02 7.5,36.04 0,22.04 -6.67,38.73 -20.02,50.09 -13.36,11.33 -28.71,17.01 -46.06,17.01 -12.01,0 -22.7,-2.34 -32.06,-7.01 -9.34,-4.67 -17.35,-10.51 -24.01,-17.52 -6.69,-7.01 -12.37,-14.52 -17.04,-22.53 -4.66,-8.02 -8.68,-15.35 -12.01,-22.04 -4.01,-8 -8.52,-16.35 -13.52,-25.03 -5.01,-8.69 -11.02,-16.53 -18.02,-23.54 -7.01,-7.01 -15.04,-12.83 -24.03,-17.52 -9.03,-4.68 -19.88,-7.01 -32.55,-7.01 -7.35,0 -15.37,1.34 -24.04,4.01 -8.67,2.68 -16.69,7.01 -24.03,13.02 -7.35,6 -13.51,13.85 -18.52,23.53 -5.01,9.69 -7.51,21.2 -7.51,34.54 0,16.71 4.33,35.23 13.01,55.58 8.68,20.36 22.52,39.56 41.55,57.59 19.03,18.02 43.56,33.04 73.6,45.05 30.05,12.02 66.44,18.04 109.16,18.04 30.05,0 59.59,-3.84 88.62,-11.36 29.04,-7.51 54.74,-19.35 77.11,-35.55 22.36,-16.02 40.38,-36.88 54.08,-62.41 13.68,-25.54 20.53,-56.42 20.53,-92.3 0,-32.87 -5.52,-60.93 -16.53,-84.28 -11.02,-23.38 -25.04,-43.4 -42.07,-60.09 -17.01,-16.85 -35.71,-31.04 -56.07,-42.72 -20.36,-11.67 -39.55,-21.86 -57.57,-30.72 -26.04,-13.34 -48.07,-24.7 -66.11,-34.04 -18.02,-9.52 -32.37,-18.68 -43.05,-27.53 -10.68,-8.86 -18.35,-18.02 -23.02,-27.39 -4.68,-9.5 -7.03,-20.86 -7.03,-34.19 0,-20.2 6.02,-36.06 18.03,-47.74 12.02,-11.7 26.71,-17.52 44.08,-17.52 11.33,0 21.18,2.16 29.52,6.51 8.34,4.32 15.69,9.84 22.04,16.5 6.35,6.69 11.84,13.54 16.53,20.55 4.67,7 8.34,13.17 11,18.53 8.68,15.34 17.87,28.36 27.55,39.04 9.68,10.68 25.19,16.03 46.55,16.03 20.7,0 37.9,-6.68 51.58,-20.04 13.68,-13.34 20.53,-30.03 20.53,-50.07 0,-14.01 -4.33,-29.53 -13.02,-46.56 -8.68,-17.02 -22.04,-32.87 -40.06,-47.56 -18.03,-14.7 -40.89,-27.04 -68.59,-37.06 -27.71,-10.02 -60.92,-15.01 -99.64,-15.01 -31.39,0 -60.59,4.17 -87.62,12.34 -27.03,8.19 -50.57,20.37 -70.59,36.39 -20.04,16.01 -35.89,36.21 -47.57,60.59 -11.68,24.19 -17.53,52.07 -17.53,83.61 0,29.04 5.17,54.23 15.53,75.77 10.34,21.37 22.7,39.72 37.05,54.74 14.36,15.2 29.03,27.71 44.06,37.39 15.01,9.84 27.19,17.19 36.55,22.2l56.08 30.37zm707.86 -84.62c0,-8.18 -0.34,-17.35 -1,-27.54 -0.66,-10.02 -2.67,-20.52 -6.01,-31.21 -3.33,-10.85 -8.84,-21.35 -16.52,-31.38 -7.68,-10.18 -18.19,-19.35 -31.54,-27.54 -16.69,-9.51 -35.56,-15.67 -56.59,-18.53 -21.01,-2.83 -40.54,-4.32 -58.57,-4.32 -38.07,0 -70.76,3.82 -98.13,11.51 -27.38,7.69 -50.07,17.35 -68.09,29.04 -18.04,11.68 -31.23,24.87 -39.58,39.56 -8.34,14.69 -12.51,29.04 -12.51,43.06 0,16.68 5.84,31.54 17.52,44.55 11.68,13.02 28.55,19.53 50.57,19.53 11.36,0 20.87,-1.67 28.55,-5 7.67,-3.35 14.02,-7.68 19.03,-13.02 5.01,-5.34 8.99,-11.51 12.01,-18.53 3,-7.01 5.85,-13.84 8.51,-20.53 1.34,-4.01 3.35,-8.68 6.01,-14.01 2.67,-5.36 6,-10.35 10.02,-15.04 4.01,-4.67 9.18,-8.66 15.51,-12 6.35,-3.35 14.19,-5.01 23.54,-5.01 12.01,0 21.2,2.16 27.54,6.51 6.33,4.5 11.01,10.18 14.02,17.01 2.99,6.85 4.83,14.36 5.5,22.54 0.67,8.19 1.01,16.03 1.01,23.54l0 48.9c-32.73,7.01 -64.76,14.36 -96.15,22.18 -31.36,7.86 -59.4,18.21 -84.11,31.05 -24.69,12.86 -44.73,29.22 -60.08,49.41 -15.35,20.02 -23.04,45.39 -23.04,76.1 0,22.53 4.35,41.73 13.04,57.41 8.66,15.69 19.69,28.71 33.04,39.07 13.35,10.34 28.37,18.18 45.06,23.53 16.69,5.34 33.03,9.34 49.06,12.19 16.04,2.83 30.71,4.32 44.06,4.66 13.36,0.34 23.38,0.51 30.05,0.51 27.37,0 51.4,-1.68 72.1,-5.17 20.69,-3.52 38.55,-7.86 53.56,-12.87 15.04,-5.01 27.22,-10.67 36.55,-16.69 9.35,-6 16.04,-11.85 20.05,-17.52 7.33,-8.85 11.84,-18.87 13.51,-29.87 1.66,-11.18 2.5,-22.03 2.5,-32.88l0 -263.2zm-149.2 236.65c0,5.52 -0.34,11.52 -1.01,18.03 -0.67,6.51 -2.51,12.7 -5.5,18.52 -3.01,5.86 -7.69,10.87 -14.02,14.86 -6.34,4.01 -15.19,6.01 -26.55,6.01 -14.67,0 -28.87,-5.33 -42.54,-16.19 -13.7,-10.84 -20.54,-28.87 -20.54,-54.24 0,-16.69 3.18,-30.55 9.52,-41.72 6.33,-11.02 14.67,-20.19 25.04,-27.38 10.34,-7 22.02,-12.85 35.03,-17.52 13.03,-4.67 26.55,-8.84 40.57,-12.52l0 112.15zm369.41 -598.65c0,-9.68 -2.17,-16.02 -6.51,-18.68 -4.34,-2.86 -10.18,-4.18 -17.52,-4.18l-109.16 0c-9.34,0 -15.69,1.51 -19.03,4.34 -3.33,2.99 -5.01,9 -5.01,18.18l0 593.66c0,26.04 1.68,46.06 5.01,60.25 3.34,14.02 12.36,27.21 27.04,39.55 19.37,15.69 43.74,27.55 73.11,35.39 29.38,7.85 60.08,11.69 92.13,11.69 48.72,0 89.63,-8.69 122.66,-26.22 33.05,-17.34 59.59,-40.05 79.62,-67.91 20.02,-27.88 34.37,-59.1 43.06,-93.97 8.66,-34.87 13.01,-69.44 13.01,-103.65 0,-30.36 -3.33,-59.07 -10.02,-86.45 -6.67,-27.2 -16.85,-51.23 -30.55,-72.09 -13.67,-20.87 -31.03,-37.56 -52.06,-49.92 -21.04,-12.35 -46.23,-18.51 -75.6,-18.51 -17.36,0 -33.06,2.17 -47.07,6.5 -14.01,4.35 -26.36,9.52 -37.05,15.53 -10.68,6.01 -19.86,12.18 -27.53,18.52 -7.68,6.34 -13.86,11.52 -18.53,15.52l0 -277.55zm0 348.16c9.35,-5.01 17.69,-9.19 25.36,-12.52 7.69,-3.36 17.03,-5.01 28.38,-5.01 19.19,0 34.55,5.51 46.22,16.52 11.52,11.01 20.37,25.36 26.37,43.22 4.51,14.02 7.68,28.87 9.36,44.07 1.66,15.35 2.5,30.04 2.5,44.22 0,22.53 -2,44.06 -6.01,64.25 -4.01,20.21 -9.68,37.9 -17.37,52.91 -7.67,15.03 -16.84,26.71 -27.86,35.4 -10.84,8.5 -23.02,12.83 -36.22,12.83 -12.67,0 -22.2,-2.83 -28.87,-8.34 -6.69,-5.5 -11.52,-12.02 -14.85,-19.69 -3.35,-7.69 -5.35,-15.69 -6,-23.87 -0.69,-8.35 -1.01,-15.52 -1.01,-21.68l0 -222.31zm707.86 102.96c4.02,-0.5 8.35,-1.49 13.01,-2.67 4.68,-1.33 9.19,-3.49 13.52,-6.5 4.36,-3.18 7.85,-7.68 10.52,-13.52 2.67,-5.85 4.02,-13.86 4.02,-23.7 0,-11.17 -2.84,-27.21 -8.53,-47.9 -5.67,-20.87 -16.01,-41.05 -31.04,-60.92 -15.02,-19.86 -35.38,-37.23 -61.09,-52.08 -25.69,-14.85 -58.57,-22.35 -98.63,-22.35 -27.37,0 -54.91,4.51 -82.61,13.68 -27.71,9.17 -52.9,23.86 -75.6,44.23 -22.7,20.2 -41.06,46.57 -55.08,79.11 -14.02,32.54 -21.02,72.26 -21.02,118.99 0,32.21 3.99,64.27 12.01,95.81 8.01,31.54 21.37,59.74 40.06,84.45 18.68,24.53 43.21,44.55 73.6,59.74 30.37,15.2 67.59,22.71 111.65,22.71 26.71,0 50.23,-3.52 70.59,-10.53 20.37,-7.01 37.89,-16.18 52.58,-27.53 14.69,-11.36 26.87,-23.87 36.55,-37.55 9.69,-13.69 17.35,-26.87 23.04,-39.57 5.67,-12.67 9.66,-24.35 12,-35.03 2.35,-10.68 3.51,-18.7 3.51,-24.03 0,-12.7 -3.17,-22.2 -9.52,-28.55 -6.33,-6.34 -13.52,-9.51 -21.52,-9.51 -7.35,0 -13.35,1.84 -18.02,5.51 -4.67,3.66 -12.02,11.18 -22.02,22.53 -10.03,10.02 -23.72,19.86 -41.07,29.54 -17.37,9.68 -37.73,14.51 -61.09,14.51 -24.69,0 -46.73,-5.67 -66.09,-17.18 -19.35,-11.52 -34.72,-27.21 -46.06,-46.9 -5.35,-8.84 -9.02,-17.53 -11.01,-26.54 -2,-9.01 -3.68,-17.02 -5.01,-23.7l258.35 -34.55zm-268.37 -22.36c0,-14.03 1.67,-27.88 5,-41.56 3.35,-13.69 8.35,-25.87 15.04,-36.55 6.66,-10.67 15.34,-19.18 26.02,-25.54 10.69,-6.34 23.38,-9.51 38.05,-9.51 3.33,0 8.53,0.5 15.53,1.51 7.01,1.01 14.35,4.34 22.03,10 7.68,5.68 14.69,14.7 21.03,27.05 6.34,12.35 10.51,29.54 12.52,51.57l-155.22 23.03zm512.61 -79.61c0,-5.84 0.33,-11.67 1.01,-17.52 0.66,-5.85 2.33,-11.18 4.99,-16.03 2.67,-4.83 6.85,-8.67 12.52,-11.68 5.69,-2.83 13.53,-4.33 23.54,-4.33 12.01,0 20.86,2.99 26.53,9 5.68,6.01 10.51,13.35 14.53,22.04 5.33,12.68 11.68,23.86 19.03,33.54 7.34,9.68 19.68,14.53 37.04,14.53 18.69,0 33.22,-6.35 43.56,-19.04 10.34,-12.68 15.52,-28.03 15.52,-46.06 0,-23.36 -5.67,-41.22 -17.01,-53.57 -11.36,-12.34 -24.37,-21.37 -39.07,-27.04 -14.68,-5.67 -29.37,-9.02 -44.06,-10.02 -14.67,-1 -25.37,-1.49 -32.04,-1.49 -12.02,0 -26.37,0.49 -43.06,1.49 -16.69,1 -34.04,2.67 -52.06,5.35 -18.03,2.5 -36.06,6.34 -54.08,11.18 -18.03,4.83 -34.06,10.84 -48.07,18.03 -11.34,5.84 -19.03,12.51 -23.04,20.02 -3.99,7.51 -6,19.36 -6,35.55l0 404.73c0,9.01 1.5,15.02 4.51,18.03 3.01,2.83 9.17,4.34 18.52,4.34l115.17 0c8,0 13.67,-1.35 17.02,-3.84 3.34,-2.68 5,-8.52 5,-17.53l0 -369.68zm3298.34 370.02c3.33,9.34 6.85,15.17 10.52,17.51 3.68,2.33 9.84,3.52 18.53,3.52l132.18 0c5.34,-0.67 10.51,-1.68 15.52,-3.01 5,-1.33 7.51,-6 7.51,-14.02 0,-4.67 -1,-9.35 -3.01,-14.02l-229.32 -654.91c-3.33,-8.68 -6.66,-14.35 -10,-17.02 -3.35,-2.66 -9.68,-4 -19.03,-4l-78.11 0c-9.35,0 -15.69,1.34 -19.03,4 -3.33,2.67 -6.69,8.34 -10.02,17.02l-231.31 652.91c-3.34,9.35 -5.01,15.35 -5.01,18.02 0,6.02 1.99,10.02 6.01,12.02 4.01,2 8.69,3.01 14.02,3.01l87.12 0c9.36,0 15.86,-1.51 19.52,-4.52 3.67,-2.99 6.85,-8.51 9.52,-16.51l46.06 -142.2 191.26 0 47.07 142.2zm-209.29 -236.35l65.1 -222.3 67.09 222.3 -132.19 0zm572.69 -133.67c0,-5.84 0.33,-11.67 1.01,-17.52 0.66,-5.85 2.33,-11.18 4.99,-16.03 2.68,-4.83 6.85,-8.67 12.53,-11.68 5.68,-2.83 13.52,-4.33 23.52,-4.33 12.02,0 20.87,2.99 26.54,9 5.69,6.01 10.52,13.35 14.53,22.04 5.33,12.68 11.68,23.86 19.02,33.54 7.35,9.68 19.69,14.53 37.05,14.53 18.69,0 33.22,-6.35 43.56,-19.04 10.35,-12.68 15.52,-28.03 15.52,-46.06 0,-23.36 -5.68,-41.22 -17.01,-53.57 -11.36,-12.34 -24.37,-21.37 -39.06,-27.04 -14.68,-5.67 -29.38,-9.02 -44.07,-10.02 -14.68,-1 -25.37,-1.49 -32.04,-1.49 -12.02,0 -26.37,0.49 -43.06,1.49 -16.68,1 -34.04,2.67 -52.06,5.35 -18.02,2.5 -36.06,6.34 -54.08,11.18 -18.03,4.83 -34.05,10.84 -48.07,18.03 -11.34,5.84 -19.03,12.51 -23.04,20.02 -3.99,7.51 -6.01,19.36 -6.01,35.55l0 404.73c0,9.01 1.52,15.02 4.52,18.03 3.01,2.83 9.18,4.34 18.52,4.34l115.17 0c8,0 13.68,-1.35 17.02,-3.84 3.33,-2.68 5,-8.52 5,-17.53l0 -369.68z"/>
   <path class="fil1" d="M9363.94 14752.7c0,9.01 1.84,15.02 5.51,18.03 3.67,2.83 10,4.34 18.69,4.34l110.81 0c10.7,0 17.71,-1.84 20.7,-5.36 3.01,-3.49 4.51,-9.84 4.51,-18.84l0 -325.8c0,-12.34 0.66,-23.35 2,-33.04 1.33,-9.68 6.35,-18.69 15.03,-27.03 12.02,-11.69 27.37,-17.53 46.05,-17.53 9.35,0 20.2,2.83 32.55,8.69 12.36,5.82 20.54,17.18 24.53,34.04 1.34,5.17 2.18,10.51 2.52,15.84 0.32,5.52 0.49,13.2 0.49,22.88l0 322.94c0,10.34 2.16,16.69 6.52,19.37 4.32,2.49 11.33,3.84 20.69,3.84l109.82 0c9.34,0 15.69,-1.68 18.69,-4.84 2.99,-3.18 4.51,-9.02 4.51,-17.53l0 -321.78c0,-15.53 0.65,-27.87 2,-37.39 1.33,-9.35 6.34,-17.85 15.01,-25.53 4.01,-4.67 9.68,-8.69 17.03,-12.18 7.34,-3.52 17.36,-5.35 30.04,-5.35 14.69,0 26.03,2.52 34.05,7.69 8.01,5.17 13.86,11.84 17.52,20.02 3.67,8 5.84,16.69 6.5,26.03 0.68,9.52 1.02,18.36 1.02,26.71l0 321.78c0,7.85 1.49,13.52 4.5,17.01 3.01,3.52 9.35,5.36 18.69,5.36l116.83 0c8.84,0 14.35,-2 16.69,-5.86 2.33,-3.83 3.51,-9.84 3.51,-17.51l0 -330.62c0,-11.68 -1.18,-26.71 -3.51,-45.24 -2.34,-18.53 -9,-36.55 -20.2,-54.24 -11,-17.53 -28.04,-32.72 -51.23,-45.73 -23.04,-13.02 -55.75,-19.52 -97.97,-19.52 -17.54,0 -34.05,0.83 -49.9,2.49 -15.69,1.67 -31.22,4.51 -46.73,8.52 -24.03,6.01 -42.24,12.86 -54.24,20.53 -12.02,7.68 -22.2,15.19 -30.22,22.53 -5.33,-4.67 -12.02,-10.02 -20.02,-16.03 -8.01,-6.01 -18.37,-11.83 -30.71,-17.53 -12.35,-5.66 -27.54,-10.5 -45.24,-14.51 -17.84,-4.01 -39.04,-6 -63.91,-6 -10.02,0 -23.05,0.67 -39.23,1.99 -16.02,1.18 -32.88,3.67 -50.73,7.18 -17.69,3.68 -35.22,8.19 -52.24,13.68 -17.19,5.51 -31.71,12.52 -43.72,21.04 -13.51,9.01 -21.37,18.34 -23.7,27.71 -2.36,9.5 -3.51,24.19 -3.51,44.4l0 380.35zm1176.52 -355.83c0,-8.18 -0.33,-17.35 -0.99,-27.54 -0.66,-10.02 -2.67,-20.52 -6.02,-31.21 -3.33,-10.85 -8.83,-21.35 -16.53,-31.38 -7.66,-10.18 -18.18,-19.35 -31.54,-27.54 -16.68,-9.51 -35.54,-15.67 -56.57,-18.53 -21.03,-2.83 -40.55,-4.32 -58.57,-4.32 -38.07,0 -70.77,3.82 -98.13,11.51 -27.38,7.69 -50.08,17.35 -68.11,29.04 -18.02,11.68 -31.21,24.87 -39.56,39.56 -8.34,14.69 -12.51,29.04 -12.51,43.06 0,16.68 5.84,31.54 17.52,44.55 11.68,13.02 28.55,19.53 50.57,19.53 11.36,0 20.86,-1.67 28.55,-5 7.66,-3.35 14.01,-7.68 19.02,-13.02 5.01,-5.34 9,-11.51 12.02,-18.53 3,-7.01 5.84,-13.84 8.5,-20.53 1.34,-4.01 3.36,-8.68 6.02,-14.01 2.67,-5.36 6,-10.35 10.01,-15.04 4.01,-4.67 9.19,-8.66 15.51,-12 6.35,-3.35 14.2,-5.01 23.54,-5.01 12.02,0 21.2,2.16 27.55,6.51 6.33,4.5 11,10.18 14.01,17.01 3,6.85 4.84,14.36 5.51,22.54 0.67,8.19 1,16.03 1,23.54l0 48.9c-32.72,7.01 -64.76,14.36 -96.14,22.18 -31.37,7.86 -59.41,18.21 -84.11,31.05 -24.69,12.86 -44.73,29.22 -60.08,49.41 -15.36,20.02 -23.04,45.39 -23.04,76.1 0,22.53 4.35,41.73 13.03,57.41 8.67,15.69 19.69,28.71 33.04,39.07 13.36,10.34 28.37,18.18 45.06,23.53 16.69,5.34 33.04,9.34 49.07,12.19 16.02,2.83 30.71,4.32 44.06,4.66 13.36,0.34 23.38,0.51 30.04,0.51 27.37,0 51.41,-1.68 72.11,-5.17 20.68,-3.52 38.55,-7.86 53.56,-12.87 15.03,-5.01 27.2,-10.67 36.55,-16.69 9.34,-6 16.03,-11.85 20.05,-17.52 7.33,-8.85 11.83,-18.87 13.51,-29.87 1.66,-11.18 2.49,-22.03 2.49,-32.88l0 -263.2zm-149.2 236.65c0,5.52 -0.33,11.52 -1,18.03 -0.67,6.51 -2.51,12.7 -5.51,18.52 -3.01,5.86 -7.68,10.87 -14.01,14.86 -6.35,4.01 -15.19,6.01 -26.55,6.01 -14.68,0 -28.87,-5.33 -42.54,-16.19 -13.7,-10.84 -20.55,-28.87 -20.55,-54.24 0,-16.69 3.18,-30.55 9.52,-41.72 6.34,-11.02 14.68,-20.19 25.03,-27.38 10.35,-7 22.04,-12.85 35.05,-17.52 13.03,-4.67 26.55,-8.84 40.56,-12.52l0 112.15zm1845.36 -543.41c-3.34,-10 -6.85,-16.19 -10.53,-18.52 -3.67,-2.34 -10.18,-3.5 -19.52,-3.5l-134.19 0c-3.33,0 -7.67,0.5 -13.01,1.5 -5.34,0.99 -8.02,5.51 -8.02,13.51 0,3.34 1.34,9.35 4.02,18.03l218.29 654.91c3.34,8.68 6.68,14.02 10.02,16.02 3.34,2 9.67,3.01 19.03,3.01l63.08 0c10.01,0 16.53,-1.68 19.53,-5.01 3.01,-3.34 6.17,-9.69 9.52,-19.03l215.29 -649.9c3.34,-9.34 5.01,-15.36 5.01,-18.03 0,-7.35 -3,-11.68 -9.01,-13.01 -6.01,-1.34 -10.36,-2 -13.02,-2l-89.13 0c-8,0 -14.02,1.16 -18.02,3.5 -4,2.33 -7.35,7.84 -10.02,16.52l-124.16 410.57 -115.16 -408.57zm557.67 189.27c0,-9.35 -1.68,-15.53 -5.01,-18.52 -3.34,-3.02 -9.68,-4.51 -19.03,-4.51l-118.16 0c-9.36,0 -15.19,1.82 -17.53,5.5 -2.33,3.67 -3.51,9.19 -3.51,16.53l0 472.65c0,7.34 1,13.19 3.02,17.52 1.98,4.34 7.66,6.52 17.01,6.52l118.15 0c8.69,0 15.04,-1.51 19.04,-4.52 4,-2.99 6.02,-9.84 6.02,-20.53l0 -470.64zm-3.02 -141.2c-0.66,-18.69 -7,-35.05 -19.02,-49.07 -12.02,-14.01 -31.7,-21.02 -59.09,-21.02 -28.03,0 -48.73,7.01 -62.08,21.02 -13.35,14.02 -20.03,30.7 -20.03,50.07 0,22.7 8.01,39.89 24.03,51.57 16.03,11.69 35.72,17.52 59.1,17.52 20.02,0 37.86,-5.66 53.56,-17.01 15.68,-11.36 23.53,-29.04 23.53,-53.08zm497.59 -104.64c0,-10.34 -2.16,-16.53 -6.51,-18.04 -4.34,-1.65 -11.19,-2.83 -20.52,-3.49l-105.15 0c-7.35,0 -13.51,1.32 -18.52,4.18 -5.02,2.83 -7.52,10.18 -7.52,22.02l0 238.16c-7.34,-4 -17.02,-8.34 -29.04,-13.02 -12.01,-4.67 -28.7,-7 -50.06,-7 -34.73,0 -65.76,7.5 -93.14,22.35 -27.36,14.85 -50.4,34.89 -69.09,60.09 -18.7,25.37 -32.88,54.24 -42.56,86.79 -9.68,32.55 -14.52,66.92 -14.52,102.98 0,36.05 4.84,69.09 14.52,99.47 9.68,30.37 24.53,56.4 44.56,78.27 20.03,21.86 45.56,38.72 76.61,50.73 31.05,12.02 67.92,18.04 110.65,18.04 19.36,0 38.23,-1.19 56.58,-3.52 18.36,-2.16 35.38,-5.33 51.07,-9.17 15.7,-4.01 29.55,-8.34 41.56,-13.35 12,-4.85 21.36,-9.52 28.04,-14.19 15.34,-10.34 24.53,-21.7 27.54,-33.72 3,-12.18 4.83,-25.69 5.5,-40.73l0 -626.85zm-158.22 586.97c0,5.01 -0.33,10.68 -0.99,17.03 -0.68,6.51 -2.34,12.51 -5.01,18.02 -2.67,5.52 -6.85,10.19 -12.52,13.86 -5.67,3.67 -13.85,5.5 -24.53,5.5 -16.03,0 -30.05,-4.67 -42.07,-13.84 -12.02,-9.19 -22.02,-21.54 -30.04,-36.9 -8,-15.35 -13.85,-33.04 -17.52,-53.4 -3.68,-20.2 -5.52,-41.07 -5.52,-62.58 0,-21.54 1.84,-42.41 5.52,-62.76 3.67,-20.2 9.52,-38.22 17.52,-53.91 8.02,-15.53 18.18,-28.04 30.55,-37.21 12.35,-9.19 26.87,-13.86 43.56,-13.86 9.33,0 17.19,1.17 23.53,3.68 6.35,2.5 12.18,5.17 17.52,8.34l0 268.03zm607.73 -223.64c0,-8.18 -0.34,-17.35 -1,-27.54 -0.66,-10.02 -2.67,-20.52 -6.01,-31.21 -3.33,-10.85 -8.84,-21.35 -16.53,-31.38 -7.67,-10.18 -18.18,-19.35 -31.54,-27.54 -16.69,-9.51 -35.55,-15.67 -56.57,-18.53 -21.03,-2.83 -40.55,-4.32 -58.58,-4.32 -38.06,0 -70.76,3.82 -98.14,11.51 -27.37,7.69 -50.06,17.35 -68.09,29.04 -18.02,11.68 -31.22,24.87 -39.56,39.56 -8.34,14.69 -12.52,29.04 -12.52,43.06 0,16.68 5.85,31.54 17.53,44.55 11.68,13.02 28.54,19.53 50.56,19.53 11.37,0 20.87,-1.67 28.55,-5 7.67,-3.35 14.01,-7.68 19.03,-13.02 5.01,-5.34 9,-11.51 12.01,-18.53 3,-7.01 5.85,-13.84 8.51,-20.53 1.34,-4.01 3.35,-8.68 6,-14.01 2.69,-5.36 6.02,-10.35 10.03,-15.04 4.01,-4.67 9.18,-8.66 15.51,-12 6.35,-3.35 14.19,-5.01 23.54,-5.01 12.02,0 21.19,2.16 27.54,6.51 6.34,4.5 11.01,10.18 14.02,17.01 2.99,6.85 4.83,14.36 5.51,22.54 0.65,8.19 1,16.03 1,23.54l0 48.9c-32.72,7.01 -64.76,14.36 -96.14,22.18 -31.37,7.86 -59.42,18.21 -84.11,31.05 -24.7,12.86 -44.73,29.22 -60.09,49.41 -15.35,20.02 -23.03,45.39 -23.03,76.1 0,22.53 4.35,41.73 13.02,57.41 8.68,15.69 19.69,28.71 33.05,39.07 13.35,10.34 28.37,18.18 45.06,23.53 16.68,5.34 33.03,9.34 49.07,12.19 16.02,2.83 30.69,4.32 44.05,4.66 13.35,0.34 23.38,0.51 30.04,0.51 27.38,0 51.42,-1.68 72.11,-5.17 20.69,-3.52 38.55,-7.86 53.56,-12.87 15.03,-5.01 27.21,-10.67 36.56,-16.69 9.34,-6 16.03,-11.85 20.03,-17.52 7.33,-8.85 11.84,-18.87 13.52,-29.87 1.67,-11.18 2.5,-22.03 2.5,-32.88l0 -263.2zm-149.2 236.65c0,5.52 -0.35,11.52 -1,18.03 -0.68,6.51 -2.52,12.7 -5.51,18.52 -3.01,5.86 -7.68,10.87 -14.02,14.86 -6.35,4.01 -15.19,6.01 -26.55,6.01 -14.67,0 -28.87,-5.33 -42.54,-16.19 -13.69,-10.84 -20.54,-28.87 -20.54,-54.24 0,-16.69 3.17,-30.55 9.52,-41.72 6.34,-11.02 14.68,-20.19 25.03,-27.38 10.35,-7 22.02,-12.85 35.04,-17.52 13.03,-4.67 26.55,-8.84 40.57,-12.52l0 112.15z"/>
   <path class="fil2" d="M8222.34 2416.74c2645.11,0 4869.3,1801.04 5513.93,4243.6l-217.69 0c-639.13,-2325.17 -2768.03,-4033.49 -5296.24,-4033.49 -3033.45,0 -5492.54,2459.1 -5492.54,5492.53 0,3033.45 2459.09,5492.55 5492.54,5492.55 2524.77,0 4651.35,-1703.65 5293.67,-4024l217.68 0c-647.89,2437.73 -2869.68,4234.09 -5511.35,4234.09 -3149.47,0 -5702.64,-2553.15 -5702.64,-5702.64 0,-3149.47 2553.17,-5702.64 5702.64,-5702.64z"/>
   <path class="fil3" d="M8222.34 2626.85c2528.21,0 4657.11,1708.32 5296.24,4033.49l-218.01 0c-633.18,-2207.76 -2666.97,-3823.41 -5078.23,-3823.41 -2917.41,0 -5282.45,2365.04 -5282.45,5282.45 0,2917.41 2365.04,5282.44 5282.45,5282.44 2407.78,0 4439.11,-1611.01 5075.38,-3813.89l218.29 0c-642.32,2320.35 -2768.9,4024 -5293.67,4024 -3033.45,0 -5492.54,-2459.1 -5492.54,-5492.55 0,-3033.43 2459.09,-5492.53 5492.54,-5492.53z"/>
   <path class="fil4" d="M8222.34 2836.93c2411.26,0 4445.05,1615.65 5078.23,3823.41l-219.26 0c-626.72,-2090.12 -2564.82,-3613.31 -4858.97,-3613.31 -2801.39,0 -5072.35,2270.97 -5072.35,5072.35 0,2801.39 2270.96,5072.36 5072.35,5072.36 2290.67,0 4226.38,-1518.57 4856.15,-3603.81l219.23 0c-636.27,2202.88 -2667.6,3813.89 -5075.38,3813.89 -2917.41,0 -5282.45,-2365.03 -5282.45,-5282.44 0,-2917.41 2365.04,-5282.45 5282.45,-5282.45z"/>
   <path class="fil5" d="M8222.34 3047.03c2294.15,0 4232.25,1523.19 4858.97,3613.31l-219.57 0c-619.72,-1972.44 -2462.41,-3403.23 -4639.4,-3403.23 -2685.35,0 -4862.26,2176.91 -4862.26,4862.27 0,2685.35 2176.91,4862.26 4862.26,4862.26 2173.48,0 4013.64,-1426.17 4636.29,-3393.71l219.86 0c-629.77,2085.24 -2565.48,3603.81 -4856.15,3603.81 -2801.39,0 -5072.35,-2270.97 -5072.35,-5072.36 0,-2801.38 2270.96,-5072.35 5072.35,-5072.35z"/>
   <path class="fil6" d="M8222.34 3257.11c2176.99,0 4019.68,1430.79 4639.4,3403.23l-220.95 0c-612.07,-1854.56 -2358.82,-3193.12 -4418.45,-3193.12 -2569.31,0 -4652.16,2082.84 -4652.16,4652.16 0,2569.33 2082.85,4652.17 4652.16,4652.17 2056.12,0 3800.48,-1333.98 4415.36,-3183.62l220.93 0c-622.65,1967.54 -2462.81,3393.71 -4636.29,3393.71 -2685.35,0 -4862.26,-2176.91 -4862.26,-4862.26 0,-2685.36 2176.91,-4862.27 4862.26,-4862.27z"/>
   <path class="fil7" d="M8222.34 3467.22c2059.63,0 3806.38,1338.56 4418.45,3193.12l-221.88 0c-603.68,-1736.52 -2254.43,-2983.03 -4196.57,-2983.03 -2453.3,0 -4442.08,1988.79 -4442.08,4442.07 0,2453.3 1988.78,4442.07 4442.08,4442.07 1938.58,0 3586.83,-1241.95 4193.24,-2973.52l222.12 0c-614.88,1849.64 -2359.24,3183.62 -4415.36,3183.62 -2569.31,0 -4652.16,-2082.84 -4652.16,-4652.17 0,-2569.32 2082.85,-4652.16 4652.16,-4652.16z"/>
   <path class="fil8" d="M8222.34 3677.31c1942.14,0 3592.89,1246.51 4196.57,2983.03l-222.89 0c-594.4,-1618.34 -2149.19,-2772.94 -3973.68,-2772.94 -2337.26,0 -4231.97,1894.74 -4231.97,4231.98 0,2337.26 1894.71,4231.99 4231.97,4231.99 1820.89,0 3373.05,-1150.09 3970.06,-2763.44l223.18 0c-606.41,1731.57 -2254.66,2973.52 -4193.24,2973.52 -2453.3,0 -4442.08,-1988.77 -4442.08,-4442.07 0,-2453.28 1988.78,-4442.07 4442.08,-4442.07z"/>
   <path class="fil9" d="M8222.34 3887.4c1824.49,0 3379.28,1154.6 3973.68,2772.94l-224.82 0c-584.17,-1499.88 -2042.31,-2562.83 -3748.86,-2562.83 -2221.23,0 -4021.89,1800.65 -4021.89,4021.87 0,2221.22 1800.66,4021.88 4021.89,4021.88 1702.95,0 3158.63,-1058.44 3745.25,-2553.33l224.81 0c-597.01,1613.35 -2149.17,2763.44 -3970.06,2763.44 -2337.26,0 -4231.97,-1894.73 -4231.97,-4231.99 0,-2337.24 1894.71,-4231.98 4231.97,-4231.98z"/>
   <path class="fil10" d="M8222.34 4097.5c1706.55,0 3164.7,1062.95 3748.87,2562.85l-226.54 0c-572.77,-1381.18 -1934,-2352.75 -3522.33,-2352.75 -2105.2,0 -3811.79,1706.59 -3811.79,3811.79 0,2105.19 1706.59,3811.79 3811.79,3811.79 1584.7,0 2943.37,-967.11 3518.43,-2343.24l226.82 0c-586.62,1494.89 -2042.31,2553.32 -3745.25,2553.32 -2221.23,0 -4021.89,-1800.65 -4021.89,-4021.87 0,-2221.22 1800.66,-4021.89 4021.89,-4021.89z"/>
   <path class="fil11" d="M12214.87 4147.01l-1287.22 1287.23 -0.32 -0.31 -0.31 -0.32c-6.28,-6.33 -12.59,-12.62 -18.9,-18.91l-0.32 -0.31 -0.31 -0.31 1287.15 -1287.17 -2512.7 470.38 -0.93 -0.38 -1444.42 -2110.32 0 1821.19 -0.22 0 -5.34 -0.07 -0.23 0 -0.22 -0.01 -0.23 0 -0.22 -0.01 -0.22 0 -0.22 0 -0.22 -0.01c-2.23,-0.04 -4.45,-0.08 -6.69,-0.08l-0.22 0 -0.22 0 -0.22 0 -0.23 0c-2.23,0 -4.46,0.04 -6.68,0.08l-0.22 0.01 -0.23 0 -0.22 0 -0.22 0.01 -0.22 0 -0.22 0.01 -0.22 0 -5.36 0.07 -0.22 0 0 -1819.88 -1445.8 2108.55 -2512.96 -470.24 1287.88 1287.87 -0.32 0.31 -0.31 0.31c-6.33,6.28 -12.63,12.58 -18.91,18.91l-0.31 0.32 -0.32 0.31 -1286.54 -1286.53 468.64 2514.05 -2108.99 1443.37 1820.59 0 0 0.22 -0.07 5.35 -0.01 0.22 0 0.22 0 0.22 -0.01 0.23 0 0.23 0 0.22 -0.01 0.22c-0.04,2.22 -0.08,4.45 -0.08,6.68l0 0.23 0 0.22 0 0.22 0 0.22c0,2.24 0.04,4.46 0.08,6.69l0.01 0.22 0 0.22 0 0.22 0.01 0.22 0 0.22 0 0.22 0.01 0.23 0.07 5.35 0 0.22 -1818.24 0 2104.51 1443.42 -469.15 2516.64 1289.18 -1289.18 0.32 0.31c6.37,6.44 12.78,12.85 19.22,19.23l0.31 0.31 0.32 0.31 -1285.77 1285.77 2512.25 -468.11 1444.4 2106.89 0 -1818.24 0.22 0 5.36 0.07 0.22 0.01 0.22 0 0.22 0 0.22 0.01 0.22 0.01 0.23 0 0.22 0c2.22,0.04 4.45,0.08 6.68,0.09l0.23 0 0.22 0 0.22 0 0.22 0c2.24,-0.01 4.46,-0.05 6.69,-0.09l0.22 0 0.22 0 0.22 -0.01 0.22 -0.01 0.23 0 0.22 0 0.23 -0.01 5.34 -0.07 0.22 0 0 1820.97 1445.42 -2109.39 2512.54 471.49 -1287.07 -1289.37 0.31 -0.31 0.32 -0.32c6.43,-6.38 12.83,-12.79 19.22,-19.22l0.31 -0.31 1285.06 1287.34 -465.29 -2503.93 57.59 0 1692.34 700.98 -0.17 0.42 -0.17 0.41 -0.18 0.42 -0.33 0.81 -0.17 0.43 -0.17 0.41 -0.17 0.41 -0.16 0.41 -0.17 0.41 -0.17 0.41 -0.17 0.42 -0.16 0.41 -0.17 0.41 -0.17 0.42 -0.17 0.41 -0.17 0.41 -0.17 0.42 -0.17 0.41 -0.16 0.41 -0.17 0.41c-2.33,5.62 -4.57,11.3 -6.91,16.91l-0.17 0.41 -0.17 0.41 -1706.42 -706.82 472.9 2544.89 -0.49 0.49 -2541.16 -476.87 706.9 1706.59 -0.41 0.17 -0.42 0.17c-5.34,2.23 -10.73,4.36 -16.08,6.57l-0.41 0.17 -0.41 0.17 -0.42 0.16 -0.41 0.17 -0.42 0.17 -0.41 0.17 -0.41 0.16 -5.36 2.19 -0.42 0.17 -0.41 0.17 -0.41 0.17 -706.7 -1706.11 -1461.89 2133.45 -1463.36 -2134.53 -707.14 1707.19 -0.41 -0.17 -0.41 -0.17 -0.41 -0.17 -0.82 -0.33 -0.43 -0.17 -0.4 -0.17 -0.41 -0.17 -0.42 -0.16 -0.41 -0.17 -0.41 -0.18 -0.42 -0.17 -0.41 -0.16 -0.41 -0.17 -0.41 -0.17 -0.41 -0.17 -0.42 -0.16 -0.42 -0.17 -0.4 -0.17 -0.42 -0.16 -0.41 -0.17c-5.62,-2.33 -11.3,-4.57 -16.91,-6.91l-0.41 -0.17 -0.4 -0.17 706.91 -1706.69 -2544.14 474.04 -0.76 -0.78 473.63 -2540.64 -1703.92 705.79 -0.17 -0.41 -0.18 -0.41c-2.28,-5.48 -4.47,-11.02 -6.74,-16.5l-0.16 -0.41 -0.17 -0.41 -0.17 -0.41 -0.17 -0.42 -0.16 -0.42 -0.17 -0.4 -0.17 -0.42 -0.16 -0.41 -0.17 -0.41 -0.17 -0.41 -0.18 -0.42 -0.16 -0.41 -0.17 -0.41 -0.17 -0.41 -0.17 -0.41 -0.67 -1.65 -0.17 -0.42 -0.16 -0.41 -0.17 -0.42 1706.59 -706.89 -2133.77 -1463.5 2135.1 -1461.23 -1707.92 -707.46 0.17 -0.41 0.16 -0.41 0.17 -0.42 0.34 -0.82 0.17 -0.42 0.16 -0.4 0.17 -0.41 0.17 -0.43 0.17 -0.41 0.16 -0.41 0.18 -0.41 0.17 -0.41 0.17 -0.41 0.16 -0.42 0.17 -0.41 0.17 -0.42 0.16 -0.4 0.17 -0.41 0.17 -0.42 0.17 -0.42c2.32,-5.62 4.56,-11.29 6.9,-16.91l0.18 -0.4 0.17 -0.41 1706.22 706.74 -474.13 -2543.42 0.46 -0.47 2542.75 475.82 -707.02 -1706.94 0.4 -0.17 0.41 -0.17c5.35,-2.24 10.74,-4.36 16.09,-6.58l0.41 -0.17 0.41 -0.16 0.42 -0.17 0.41 -0.17 0.41 -0.17 0.42 -0.17 0.41 -0.17 5.36 -2.19 0.41 -0.17 0.41 -0.16 0.41 -0.17 706.62 1705.93 1462.95 -2133.57 0.92 0.01 1461.36 2135.06 707.24 -1707.43 0.41 0.17 0.41 0.16 0.42 0.17 0.82 0.35 0.42 0.17 0.41 0.16 0.41 0.17 0.41 0.17 0.42 0.17 0.41 0.16 0.41 0.17 0.41 0.17 0.41 0.17 0.42 0.16 0.41 0.17 0.41 0.17 0.42 0.16 0.41 0.18 0.41 0.17 0.42 0.17 0.41 0.16c5.48,2.27 11.02,4.46 16.49,6.75l0.42 0.17 0.41 0.17 -707.37 1707.75 2543.56 -476.15 0.47 0.47 -474.84 2543.04 1706.45 -706.84 0.17 0.41 0.17 0.4c2.23,5.36 4.36,10.75 6.57,16.1l0.17 0.4 0.17 0.41 0.16 0.43 0.17 0.41 0.17 0.41 0.17 0.41 0.17 0.41 2.18 5.36 0.18 0.42 0.17 0.41 0.17 0.41 -1706.51 706.87 5.38 3.64 -50.64 0 469.3 -2513.34z"/>
   <path class="fil12" d="M13072.94 7437.83c97.26,-225.57 -133.19,-466.98 -275.18,-620.3l-0.46 -0.49 -0.45 0.49c-141.99,153.32 -372.45,394.73 -275.18,620.3 102.5,237.68 448.76,237.68 551.27,0z"/>
   <path class="fil13" d="M13072.94 7438.55c22.07,-51.18 27.22,-103.19 20.4,-154.79 -3.42,24.28 -10.03,48.51 -20.4,72.57 -102.51,237.67 -448.77,237.67 -551.27,0 -10.37,-24.06 -16.99,-48.29 -20.41,-72.57 -6.81,51.6 -1.66,103.61 20.41,154.79 102.5,237.68 448.76,237.68 551.27,0z"/>
   <path class="fil14" d="M13066.48 7415.05c17.95,-58.74 15.4,-85.3 3.12,-91.39 -17.51,-8.7 -54.8,24.17 -80.76,64.64 -76.05,118.59 30.63,180.59 77.64,26.75z"/>
   <path class="fil15" d="M12768.22 6893.2c-75.49,61.35 -300.43,358.74 -208.39,421.14 11.36,7.7 42.65,0.45 56.25,-20.7 14.45,-22.43 51.36,-146.88 66.93,-186.09 36.8,-92.62 37.46,-96.44 82.65,-170.11 4.56,-7.42 12.64,-18.59 18.19,-28.62 6.72,-12.12 3.23,-26.01 -15.63,-15.62z"/>
   <path class="fil12" d="M13072.94 8385.92c97.26,-225.57 -133.19,-466.98 -275.18,-620.3l-0.46 -0.49 -0.45 0.49c-141.99,153.32 -372.45,394.73 -275.18,620.3 102.5,237.68 448.76,237.68 551.27,0z"/>
   <path class="fil13" d="M13072.94 8386.64c22.07,-51.18 27.22,-103.19 20.4,-154.79 -3.42,24.28 -10.03,48.51 -20.4,72.57 -102.51,237.67 -448.77,237.67 -551.27,0 -10.37,-24.06 -16.99,-48.29 -20.41,-72.57 -6.81,51.6 -1.66,103.61 20.41,154.79 102.5,237.68 448.76,237.68 551.27,0z"/>
   <path class="fil14" d="M13066.48 8363.14c17.95,-58.74 15.4,-85.3 3.12,-91.39 -17.51,-8.7 -54.8,24.17 -80.76,64.64 -76.05,118.59 30.63,180.59 77.64,26.75z"/>
   <path class="fil15" d="M12768.22 7841.29c-75.49,61.35 -300.43,358.75 -208.39,421.14 11.36,7.7 42.65,0.45 56.25,-20.7 14.45,-22.43 51.36,-146.88 66.93,-186.09 36.8,-92.62 37.46,-96.44 82.65,-170.11 4.56,-7.42 12.64,-18.59 18.19,-28.61 6.72,-12.13 3.23,-26.02 -15.63,-15.63z"/>
   <path class="fil12" d="M13072.94 9303.28c97.26,-225.57 -133.19,-466.98 -275.18,-620.29l-0.46 -0.5 -0.45 0.5c-141.99,153.31 -372.45,394.72 -275.18,620.29 102.5,237.68 448.76,237.68 551.27,0z"/>
   <path class="fil13" d="M13072.94 9304.01c22.07,-51.19 27.22,-103.19 20.4,-154.8 -3.42,24.29 -10.03,48.52 -20.4,72.57 -102.51,237.68 -448.77,237.68 -551.27,0 -10.37,-24.05 -16.99,-48.28 -20.41,-72.57 -6.81,51.61 -1.66,103.61 20.41,154.8 102.5,237.67 448.76,237.67 551.27,0z"/>
   <path class="fil14" d="M13066.48 9280.51c17.95,-58.75 15.4,-85.31 3.12,-91.4 -17.51,-8.7 -54.8,24.18 -80.76,64.65 -76.05,118.58 30.63,180.58 77.64,26.75z"/>
   <path class="fil15" d="M12768.22 8758.65c-75.49,61.36 -300.43,358.75 -208.39,421.15 11.36,7.69 42.65,0.44 56.25,-20.69 14.45,-22.45 51.36,-146.9 66.93,-186.1 36.8,-92.61 37.46,-96.45 82.65,-170.1 4.56,-7.42 12.64,-18.61 18.19,-28.62 6.72,-12.13 3.23,-26.03 -15.63,-15.64z"/>
   <path class="fil16" d="M5994.89 7320.09l1502.45 0 0 4.35 -1502.45 0 0 -4.35zm-0.46 71.65l1502.47 0 0 4.35 -1502.47 0 0 -4.35zm0.9 -143.3l1502.46 0 0 4.34 -1502.46 0 0 -4.34zm0.45 -71.66l1502.46 0 0 4.36 -1502.46 0 0 -4.36zm0.44 -71.66l1502.46 0 0 4.35 -1502.46 0 0 -4.35zm0.45 -71.64l1502.46 0 0 4.35 -1502.46 0 0 -4.35zm0.44 -71.66l1502.47 0 0 4.35 -1502.47 0 0 -4.35zm0.46 -71.65l1502.46 0 0 4.36 -1502.46 0 0 -4.36zm0.44 -71.65l1502.46 0 0 4.35 -1502.46 0 0 -4.35zm0.45 -71.65l1502.46 0 0 4.34 -1502.46 0 0 -4.34zm0.44 -71.66l1502.47 0 0 4.36 -1502.47 0 0 -4.36zm0.45 -71.64l1502.47 0 0 4.34 -1502.47 0 0 -4.34zm0.45 -71.66l1502.46 0 0 4.35 -1502.46 0 0 -4.35zm0.45 -71.66l1502.46 0 0 4.35 -1502.46 0 0 -4.35zm0.44 -71.64l1502.47 0 0 4.35 -1502.47 0 0 -4.35zm0.45 -71.66l1502.47 0 0 4.35 -1502.47 0 0 -4.35zm0.45 -71.65l1502.46 0 0 4.35 -1502.46 0 0 -4.35zm0.44 -71.65l1502.47 0 0 4.35 -1502.47 0 0 -4.35zm0.45 -71.66l1502.46 0 0 4.36 -1502.46 0 0 -4.36zm0.45 -71.65l1502.45 0 0 4.36 -1502.45 0 0 -4.36zm0.44 -71.65l1502.47 0 0 4.34 -1502.47 0 0 -4.34zm0.45 -71.65l1502.46 0 0 4.35 -1502.46 0 0 -4.35z"/>
   <path class="fil17" d="M5984.61 7359.38c25.76,0 46.64,20.88 46.64,46.64 0,25.75 -20.88,46.63 -46.64,46.63 -25.75,0 -46.63,-20.88 -46.63,-46.63 0,-25.76 20.88,-46.64 46.63,-46.64z"/>
   <path class="fil16" d="M6058.56 7387.76l0 -1516.91 4.35 0 0 1516.91 -4.35 0zm-72.14 -0.43l0 -1516.91 4.35 0 0 1516.91 -4.35 0zm144.28 0.87l0 -1516.9 4.35 0 0 1516.9 -4.35 0zm72.14 0.44l0 -1516.9 4.35 0 0 1516.9 -4.35 0zm72.14 0.45l0 -1516.91 4.36 0 0 1516.91 -4.36 0zm72.14 0.44l0 -1516.91 4.36 0 0 1516.91 -4.36 0zm72.14 0.44l0 -1516.92 4.35 0 0 1516.92 -4.35 0zm72.14 0.43l0 -1516.91 4.36 0 0 1516.91 -4.36 0zm72.14 0.45l0 -1516.91 4.36 0 0 1516.91 -4.36 0zm72.14 0.43l0 -1516.9 4.35 0 0 1516.9 -4.35 0zm72.15 0.45l0 -1516.92 4.34 0 0 1516.92 -4.34 0zm72.13 0.44l0 -1516.91 4.35 0 0 1516.91 -4.35 0zm72.15 0.43l0 -1516.9 4.35 0 0 1516.9 -4.35 0zm72.13 0.44l0 -1516.9 4.36 0 0 1516.9 -4.36 0zm72.14 0.44l0 -1516.9 4.35 0 0 1516.9 -4.35 0zm72.14 0.45l0 -1516.91 4.36 0 0 1516.91 -4.36 0zm72.14 0.43l0 -1516.9 4.36 0 0 1516.9 -4.36 0zm72.14 0.45l0 -1516.92 4.36 0 0 1516.92 -4.36 0zm72.15 0.43l0 -1516.91 4.34 0 0 1516.91 -4.34 0zm72.13 0.44l0 -1516.9 4.36 0 0 1516.9 -4.36 0zm72.15 0.44l0 -1516.9 4.35 0 0 1516.9 -4.35 0zm72.14 0.45l0 -1516.91 4.35 0 0 1516.91 -4.35 0z"/>
   <path class="fil17" d="M6506.78 7001.24c25.74,0 46.63,20.88 46.63,46.63 0,25.75 -20.89,46.64 -46.63,46.64 -25.76,0 -46.65,-20.89 -46.65,-46.64 0,-25.75 20.89,-46.63 46.65,-46.63z"/>
   <path class="fil18" d="M5998.87 7378.98l492.49 -337.79 1.16 1.7 0 -1153.68 -493.65 0 0 1489.77zm506.77 -316.85l1.76 2.57 -476.85 327.06 1470.87 0 0 -329.63 -995.78 0zm995.78 -28.52l0 -1144.4 -980.38 0 0 1144.4 980.38 0zm-994.64 -1531.06l1545.31 0 0 1540.88 5.54 8.11 -5.54 3.8 0 6.79 -9.89 0 -512.27 351.36 0 6.78 -1559.58 0 0 -1559.58 9.9 0 512.27 -351.35 0 -6.79 14.26 0zm1485.11 1559.58l-461.96 0 0 316.85 461.96 -316.85zm-1499.37 -1201.44l0 -316.85 -461.97 316.85 461.97 0zm1499.37 -329.63l-1470.85 0 0 329.63 990.27 0 480.58 -329.63zm-461.96 1502.55l493.65 0 0 -1489.77 -493.65 338.59 0 1151.18z"/>
   <polygon class="fil19" points="7529.93,5882.43 8023.58,5543.84 8023.5,7041.07 7529.93,7378.98 "/>
   <path class="fil20" d="M6505.75 5470.88c25.76,0 46.63,20.88 46.63,46.63 0,25.76 -20.87,46.64 -46.63,46.64 -25.75,0 -46.63,-20.88 -46.63,-46.64 0,-25.75 20.88,-46.63 46.63,-46.63z"/>
   <path class="fil20" d="M8030.73 5470.17c25.76,0 46.63,20.88 46.63,46.63 0,25.76 -20.87,46.64 -46.63,46.64 -25.75,0 -46.64,-20.88 -46.64,-46.64 0,-25.75 20.89,-46.63 46.64,-46.63z"/>
   <path class="fil20" d="M5984.61 5828.32c25.76,0 46.64,20.87 46.64,46.63 0,25.76 -20.88,46.63 -46.64,46.63 -25.75,0 -46.63,-20.87 -46.63,-46.63 0,-25.76 20.88,-46.63 46.63,-46.63z"/>
   <path class="fil20" d="M7515.68 5828.32c25.74,0 46.62,20.87 46.62,46.63 0,25.76 -20.88,46.64 -46.62,46.64 -25.76,0 -46.64,-20.88 -46.64,-46.64 0,-25.76 20.88,-46.63 46.64,-46.63z"/>
   <path class="fil17" d="M8031.81 6998.21c25.74,0 46.62,20.89 46.62,46.64 0,25.76 -20.88,46.64 -46.62,46.64 -25.76,0 -46.65,-20.88 -46.65,-46.64 0,-25.75 20.89,-46.64 46.65,-46.64z"/>
   <path class="fil17" d="M7515.68 7359.38c25.74,0 46.62,20.88 46.62,46.64 0,25.75 -20.88,46.63 -46.62,46.63 -25.76,0 -46.64,-20.88 -46.64,-46.63 0,-25.76 20.88,-46.64 46.64,-46.64z"/>
   <path class="fil21" d="M8300.6 11302.88l-86.91 0 0 -129.92 -6.37 -3.64 -2818.25 -1473.18c-24.5,-12.81 -54.2,-1.64 -66.04,24.81l0 0.01c-11.84,26.45 -1.53,58.53 22.97,71.35l2768.81 1447.33 0 63.24 0 106.83 98.88 0 86.91 0 86.92 0 98.89 0 0 -106.83 0 -63.24 2768.81 -1447.33c24.49,-12.82 34.81,-44.9 22.96,-71.35l0 -0.01c-11.84,-26.45 -41.54,-37.62 -66.04,-24.81l-2818.24 1473.18 -6.38 3.64 0 129.92 -86.92 0z"/>
   <path class="fil21" d="M8387.54 11101.73l2295.15 -1197.17c58.27,-30.4 16.64,-127.32 -43.08,-96.17l-2252.07 1174.66 0 118.68z"/>
   <path class="fil21" d="M8387.54 10919.93l1992.21 -1043.04c50.82,-26.6 14.48,-111.2 -37.6,-83.93l-1954.61 1023.37 0 103.6z"/>
   <path class="fil21" d="M8215.04 11101.73l-2497.18 -1305.94c-58.23,-30.45 -16.62,-127.38 43.08,-96.17l2454.1 1283.43 0 118.68z"/>
   <path class="fil22" d="M4983.64 9078.39l62.09 27.22 71.03 28.6 49.3 51.43 63.02 18.6 73.64 11.54 69.57 -24.05 100.33 24.07 60.7 36.11 126.54 36.93 64.34 10.05 82.95 13.01 43.36 -168.81 77.5 -13.69 49.72 -18.82 99.18 -27.82 72.68 -8.95 47.51 -1.68 46.66 68.49 61.73 27.14 35.97 75.95 48.03 59.58 35.98 75.94 86.1 57.21 133.67 117.08 176.11 18.83 78.64 108.49 71.1 28.21 76.72 56.12 64.72 10.15 59.5 44.27 81.64 21.54 108.7 -35.82 50.57 42.9 53.74 17.14 46.12 7.23 64.87 71.33 37.76 67.12 61.71 27.13 78.11 47.21 84.7 -65.8 46.6 68.89 23.2 99.77 20.08 55.59 58.57 52.88 63.03 18.61 56.88 61.34 38.58 58.89 60.88 35.37 68.8 45.73 100.9 159.18 731.63 -377.45 -477.98 -15.39 -19.98 -55.98 -66.11 -1.23 -58.19 -52.81 42.96 -36.97 -111 -78.58 -65.64 -1.54 -33.29 -31.44 -61.19 34.13 -31.97 -39.97 -70.88 32.59 -40.89 -41.35 -9.85 -62.73 -64.42 -9.69 17.77 -58.82 -39.59 -49.88 -0.92 -61.35 30.59 -13.06 11.01 -76.96 -47.58 -59.87 -70.12 -37.22 -73.66 -11.26 5.51 -38.56 -47.57 -59.89 -70.11 -37.2 -86.62 -13.24 -2.74 -22.82 36.76 -55.8 0.76 -69.8 -35.34 -51.88 15.9 -24.16 0.79 -69.8 -46.66 -68.49 -58.05 8.36 -10.75 -54.11 -47.05 1.38 -69.5 5.04 -8.3 -40.39 -48.26 -28.37 40.74 -63.27 -71.95 -89.95 53.96 -43.96 -108.69 -96.1 -56.8 0.23 -76.28 5.53 -47.57 -59.88 -75.33 -3.09 -92.4 -75.65 -123.83 -54.34 -85.57 4.08 -104.31 -60.06 -36.05 -75.55 -30.66 -48.52 8.75 -59.8 -58.18 -52.82 -56.73 -0.16 -72.72 -20.13 -24.38 39.88 -111.91 -3.99 -98.33 23.89 -260.04 -118.56 -90.05 -76.46 36.32 -183.14c-15.74,-89.79 -19.23,-149.07 -34.34,-235.31l-84.25 -56.24 -86.06 0.07 -29.26 68.61 -44.28 45.51c-121.09,3.84 -239.24,2 -359.23,5.28l-93.47 125.61 -24.3 101.47c4.28,83.07 19.16,413.88 39.19,469.33l-38.94 102.04 -112.62 61.41 -12.31 85.47 -3.71 148.06 -9.68 68.43 -26.14 48.72 29.45 56.66 19.85 8.7 -4.49 31.75 -26.15 48.73 29.45 56.65z"/>
   <path class="fil23" d="M9022.19 9544.52c-68,70.61 -65,123.18 53.04,80.37 181.7,-65.89 239.91,-263.62 303.02,-270.19 76.12,16.06 64.33,203.94 169.56,282.44 98.51,73.53 93.29,3.57 123,-70.09 115,-285.07 238.6,-143.45 390.14,-2.5 227.93,211.99 111.98,60.47 12.04,-92.27 -291.5,-445.59 -406.97,-1173.52 -57.71,-1614.1 -57.72,-23.4 -96.52,-33.75 -136.77,-75.97 -12.26,63.5 -194.74,382.36 -228.32,423.13 -144.16,175.1 -401.97,-541.73 -463.3,-657.82 -3.15,-6.13 -66.94,14.51 -76.33,18.88 412.06,829.36 220.4,1657.58 -88.37,1978.12z"/>
   <path class="fil24" d="M9256.22 9486.49c3.05,-3.75 6.03,-7.5 8.96,-11.21 -0.07,-15.96 0.13,-31.78 0.57,-47.57l0.05 -0.76 0.24 -7.58 0 -0.24 0.29 -7.98 0 -0.28c0.54,-13.61 1.25,-27.18 2.12,-40.72l0.42 -6.51 0.11 -1.68 0.12 -1.9 0.43 -6.08 0.05 -0.73c0.38,-5.25 0.79,-10.47 1.22,-15.69l0 -0.07 0.54 -6.71 0.13 -1.44 0.57 -6.77 0.13 -1.39 0.09 -1.11c0.45,-5.06 0.93,-10.12 1.41,-15.2l0.65 -6.93 0.13 -1.23 0.81 -8.15 0.74 -7.05 0.11 -1.11 0.32 -3.12 0.55 -5.05 0.76 -7.17 0.12 -1.01 0.82 -7.22 0.1 -0.95 0.83 -7.29 0.1 -0.9 0.87 -7.35 0.09 -0.84 0.88 -7.41 0.1 -0.8 0.89 -7.48 0.09 -0.72 0.93 -7.55 0.08 -0.67 0.95 -7.62 0.08 -0.62 0.97 -7.69 0.07 -0.56 0.98 -7.75 0.07 -0.52 1.01 -7.82 0.07 -0.45 1.01 -7.89 0.06 -0.41 1.04 -7.97 0.05 -0.33 1.06 -8.04 0.04 -0.29 1.07 -8.12 0.03 -0.22 1.1 -8.2 0.03 -0.17 1.09 -8.27 0.02 -0.11 1.12 -8.35 0.01 -0.06 1.13 -8.43c13.16,-98.09 26.95,-200.87 33.79,-314.94 -5.04,39.31 -11.21,77.74 -18.43,115.2 -6.98,69.35 -15.79,134.94 -24.32,198.54l-1.13 8.44 -0.01 0.07 -1.12 8.35 -0.02 0.15 -1.11 8.24 -0.02 0.23 -1.09 8.16 -0.04 0.3 -1.07 8.05 -0.06 0.38 -1.04 7.97 -0.05 0.45 -1.04 7.86 -0.07 0.52 -1.01 7.78 -0.08 0.62 -0.99 7.68 -0.1 0.67 -0.96 7.6 -0.09 0.77 -0.95 7.51 -0.1 0.81 -0.93 7.43 -0.1 0.9 -0.9 7.33 -0.13 0.98 -0.87 7.25 -0.13 1.05 -0.85 7.16 -0.13 1.14 -0.82 7.08 -0.15 1.19 -0.79 7 -0.15 1.29 -0.76 6.91 -0.16 1.33 -0.74 6.86 -0.15 1.4 -0.72 6.77c-1.37,13.05 -2.63,26.06 -3.8,39.07l-0.16 1.8 -0.16 1.86 -0.54 6.3 -0.65 8.04 -0.02 0.2c-1.32,16.27 -2.43,32.57 -3.32,48.91l-0.02 0.21c-1.02,18.95 -1.74,37.96 -2.09,57.08l-0.01 0.85c-0.25,14.17 -0.31,28.4 -0.12,42.71zm34.69 -45.05l8.35 -11.3c-0.97,-17.45 -1.32,-34.48 -1.1,-51.44 0.86,-67.36 10.89,-133.97 28.24,-222.82l9.46 32.47c20.75,70.97 35.44,121.23 41.6,166.47l0.8 -0.12c3.07,0.65 6,1.61 8.81,2.8 -5.98,-46.62 -21.05,-98.19 -42.53,-171.67 -4.77,-16.35 -9.86,-33.73 -14.65,-50.32l-5.14 -17.87 -3.63 18.22c-19.65,98.55 -31.05,170.02 -32,242.72 -0.27,20.67 0.31,41.4 1.79,62.86zm28.8 -38.45c2.89,-3.7 5.72,-7.24 8.5,-10.61 -0.12,-3.91 -0.17,-7.77 -0.12,-11.63 0.27,-19.93 2.89,-39.76 7.44,-64.55 6.62,22.63 11.41,39.07 13.69,53.75 2.73,-2.43 5.45,-4.61 8.14,-6.51 -2.66,-13.87 -7.26,-29.61 -13.32,-50.32l-10.2 -35.35 -3.65 18.28c-6.83,34.25 -10.79,59.15 -11.13,84.58 -0.09,7.35 0.12,14.73 0.65,22.36zm77.82 -39.46c3.45,2.58 6.68,5.64 9.74,9.09 -17.41,-239.37 -29.65,-482.14 -29.42,-733.07 0.17,-200.42 8.29,-406.16 28.05,-619.64 -2.6,-4.71 -5.17,-9.46 -7.75,-14.24 -20.67,218.55 -29.15,428.98 -29.34,633.88 -0.22,247.96 11.68,487.71 28.72,723.98zm110.28 232.04c2.69,3.76 5.5,7.45 8.41,11.02 9.46,-146.4 -22.1,-298.23 -53.76,-450.48 -39.71,-190.92 -79.56,-382.54 -38.28,-563.81 11.21,-49.3 24.64,-98.35 38.51,-149.13 21.26,-77.86 43.65,-159.79 60.96,-252.41 -2.57,-2.56 -5.14,-5.2 -7.73,-7.97 -17.42,94.95 -40.26,178.62 -61.95,258 -13.94,51 -27.41,100.28 -38.62,149.52 -41.71,183.17 -1.66,375.77 38.24,567.65 30.79,148.01 61.47,295.61 54.22,437.61zm56.21 52.98c5.34,3.53 10.33,6.54 14.98,9.07l0.23 0 6.78 0 48.81 0c2.25,-2.61 4.29,-5.65 6.21,-9.07l-63.43 0 -0.58 -3.26 -0.66 -3.66 -0.59 -3.33 -0.64 -3.59 -0.59 -3.37 -0.62 -3.53 -0.61 -3.42 -0.59 -3.45 -0.6 -3.46 -0.59 -3.4 -0.61 -3.5 -0.58 -3.33 -0.61 -3.56 -0.56 -3.26 -0.62 -3.62 -0.53 -3.18 -0.62 -3.67 -0.53 -3.12 -0.63 -3.71 -0.51 -3.05 -0.63 -3.75 -0.49 -3.01 -0.63 -3.79 -0.49 -2.94 -0.62 -3.84 -0.47 -2.88 -0.62 -3.89 -0.46 -2.81 -0.63 -3.94 -1.07 -6.73 -0.43 -2.69 -0.64 -4.04 -0.41 -2.62 -0.64 -4.07 -0.39 -2.57 -0.64 -4.13 -0.39 -2.51 -0.64 -4.16 -0.37 -2.44 -0.62 -4.24 -0.99 -6.45 -0.02 -0.19 -0.35 -2.32 -0.63 -4.33 -0.33 -2.26 -0.65 -4.36 -0.32 -2.21 -0.63 -4.41 -0.3 -2.15 -0.63 -4.46 -0.31 -2.09 -0.63 -4.51 -0.29 -2.02 -0.62 -4.57 -0.27 -1.96 -0.63 -4.61 -0.89 -6.58 -0.25 -1.85 -0.62 -4.7 -0.24 -1.8 -0.62 -4.75 -0.22 -1.74 -0.62 -4.81 -0.22 -1.67 -0.6 -4.85 -0.21 -1.64 -0.61 -4.9 -0.2 -1.59 -0.59 -4.94 -0.19 -1.52 -0.59 -4.99 -0.17 -1.47 -0.6 -5.04 -0.17 -1.41 -0.59 -5.1 -0.15 -1.36 -0.59 -5.15 -0.14 -1.3 -0.58 -5.19 -0.13 -1.25 -0.57 -5.25 -0.13 -1.18 -0.56 -5.3 -0.12 -1.14 -0.56 -5.34 -0.11 -1.1 -0.55 -5.41 -0.12 -1.02 -0.53 -5.47 -0.09 -0.96 -0.53 -5.5 -0.09 -0.93 -0.53 -5.56 -0.07 -0.86 -0.52 -5.63 -0.08 -0.79 -0.5 -5.67 -0.07 -0.76 -0.49 -5.73 -0.06 -0.7 -0.54 -6.42 -0.48 -5.83 -0.05 -0.61 -0.47 -5.88 -0.03 -0.54 -0.45 -5.95 -0.04 -0.48 -0.44 -6 -0.04 -0.44 -0.43 -6.05 -0.03 -0.38 -0.42 -6.11 -0.02 -0.32 -0.41 -6.17 -0.01 -0.28 -0.4 -6.23 -0.01 -0.21 -0.38 -6.3 -0.01 -0.16 -0.37 -6.33 0 -0.12 -0.36 -6.41 0 -0.05 -0.34 -6.46c-7.06,-139.08 -1.96,-282.38 19.89,-448.78 25.23,-192.28 40.12,-374.42 48.52,-547.45 -2.97,-0.33 -5.96,-0.83 -8.96,-1.6 -8.38,173.13 -23.27,355.42 -48.52,547.87 -21.92,167.01 -27.04,310.83 -19.96,450.42l0.34 6.45 0.01 0.09 0.35 6.38 0 0.15 0.36 6.28 0.02 0.24 0.38 6.21 0.02 0.32 0.38 6.13 0.03 0.39 0.39 6.03 0.04 0.46 0.41 5.99 0.03 0.53 0.42 5.9 0.05 0.61 0.42 5.8 0.06 0.71 0.43 5.72 0.07 0.76 0.44 5.66 0.07 0.85 0.46 5.57 0.07 0.93 0.46 5.49 0.09 1 0.47 5.41 0.09 1.09 0.49 5.34 0.1 1.16 0.48 5.26 0.11 1.23 0.49 5.19 0.12 1.31 0.49 5.12 0.14 1.38 0.51 5.04 0.14 1.46 0.51 4.96 0.15 1.55 0.51 4.87 0.17 1.64 0.7 6.49 0.51 4.74 0.19 1.77 0.52 4.67 0.21 1.86 0.51 4.59 0.22 1.92 0.53 4.51 0.24 2.01 0.51 4.44 0.25 2.1 0.52 4.36 0.26 2.18 0.54 4.28 0.27 2.25 0.52 4.21 0.29 2.34 0.52 4.15 0.82 6.29 0.02 0.19 0.32 2.49 0.52 3.99 0.33 2.58 0.52 3.92 0.36 2.66 0.53 3.84 0.36 2.73 0.51 3.79 0.38 2.81 0.52 3.71 0.85 6.06 0.07 0.47 0.42 2.98 0.49 3.56 0.45 3.06 0.5 3.5 0.46 3.14 0.49 3.42 0.47 3.23 0.49 3.35 0.5 3.31 0.5 3.27 0.5 3.4 0.48 3.2 1.01 6.6 0.54 3.58 0.47 3.05 0.58 3.67 0.47 2.96 2.09 13.31 0.62 3.93 0.46 2.76 0.64 4.02 0.43 2.67 0.67 4.11 0.44 2.6 1.1 6.72 0.7 4.29 0.41 2.45 0.75 4.38 0.39 2.38 0.75 4.47 0.39 2.31 0.78 4.56 0.38 2.23 0.79 4.65 0.37 2.15 0.82 4.75 0.36 2.08 2.06 11.79 0.33 1.94 1.21 6.88 0.92 5.13 0.32 1.78 0.91 5.23 0.31 1.68 -4.41 0zm118.68 -109.37c2.66,-5.88 5.33,-11.53 8,-17 -9.57,-150.31 -20.12,-278.46 -29.56,-393.28 -29.53,-358.68 -48.34,-587.57 7.06,-949.39 -4.49,6.94 -8.47,12.86 -11.79,17.56 -52.08,351.91 -33.37,579.44 -4.3,932.54 9.8,119.11 20.77,252.55 30.59,409.57zm137.37 -137.09c3.36,-0.11 6.74,-0.05 10.12,0.19 -64.55,-135.03 -106.1,-288.49 -123.48,-462.26 -28.56,-285.67 8.13,-626.23 115.07,-1029.82 -5.95,11.49 -12.16,23.33 -18.58,35.36 -99.61,388.2 -133.26,717.51 -105.49,995.36 17.31,173.1 58.48,326.22 122.36,461.17zm115.08 49.68c8.74,6.71 17.58,13.92 26.5,21.53 -161.73,-213.2 -228.37,-551.64 -221.73,-841.35 3.05,-133.32 21.65,-256.27 53.63,-351.86 18.39,-54.97 41.17,-100.81 67.91,-134.25 2.54,-7.55 5.16,-15.1 7.86,-22.57 -2.88,2.99 -5.73,6.09 -8.52,9.32 5.3,-36.9 11.39,-74.56 18.21,-112.94 7.67,-43.08 16.28,-86.99 25.85,-131.73 15.88,-3.9 31.92,-9.73 47.91,-17.58 -2.36,24.79 -1.69,50.28 1.28,75.55 2.55,-4.17 5.21,-8.28 7.83,-12.41 -2.03,-22.91 -2.04,-45.87 0.54,-68.15 9.23,-5.02 18.41,-10.74 27.51,-17.17l-10.13 -3.97c-9.09,6.13 -18.26,11.54 -27.45,16.25 -39.96,20.45 -80.45,27.63 -117.05,23.23l-4.31 8.54c20.43,2.84 42.07,2.22 64.15,-2.14 -9.26,43.48 -17.61,86.15 -25.06,128.02 -7.73,43.47 -14.52,86.23 -20.36,128.23 -25.43,33.72 -47.12,78.26 -64.73,130.91 -32.27,96.44 -51.02,220.31 -54.1,354.54 -6.41,279.46 55.23,604.07 204.26,820zm187.53 168.71c13,11.36 23.96,20.53 33.06,27.72l0.71 0.35 -0.26 0c4.43,3.5 8.41,6.51 11.98,9.07l22.73 0c-0.55,-1.46 -1.24,-3.05 -2.02,-4.76l-9.47 -3.94c-19.63,-8.18 -38.53,-17.71 -56.73,-28.44zm-363.91 -1593.83c-4.22,7.51 -8.42,14.95 -12.6,22.3 -1.24,7.24 -2.58,14.41 -4.05,21.57 -9.02,44.02 -22.64,87.71 -44.77,144.97 -2.65,-30.33 -3.96,-55.11 -3.7,-76.8 -3.11,5.14 -6.13,10.06 -9.03,14.77 0.44,22.99 2.35,49.49 5.5,81.85l1.8 18.58 6.89 -17.34c26.5,-66.73 42.13,-115.23 52.17,-164.23 3.07,-15 5.62,-30.05 7.79,-45.67zm-269.05 125.14c-2.15,-2.78 -4.3,-5.59 -6.46,-8.48 -13.02,33.69 -30.59,72.12 -53.84,119.18 -2.96,-76.2 -1.77,-136.65 4.51,-193.74 -2.54,-4.23 -5.07,-8.52 -7.6,-12.83 -8.07,65.41 -9.31,134.03 -5.2,224.51l0.79 17.34 7.77 -15.52c26.04,-52.08 45.61,-94.04 60.03,-130.46zm-28.81 -40.3c-3.07,-4.6 -6.15,-9.3 -9.22,-14.08 0.12,4.05 0.28,8.26 0.48,12.61l0.79 17.35 7.77 -15.51 0.18 -0.37zm-95.91 -169.87l-8.35 -16.88 -0.38 9.41 -0.04 0.69 -0.46 11.77 -0.03 0.69 -0.48 11.79 -0.02 0.64 -0.46 11.84 -0.04 0.6 -0.45 11.87 -0.03 0.59 -0.46 11.89 -0.03 0.56 -0.46 11.91 -0.01 0.54 -0.48 11.95 -0.01 0.5 -0.46 11.96 -0.02 0.49 -0.45 11.98 -0.02 0.45 -0.45 12.02 -0.02 0.41 -0.44 12.04 -0.02 0.39 -0.46 12.07 -0.01 0.36 -0.46 12.09 -0.01 0.33 -0.45 12.1 0 0.31 -0.45 12.12 -0.01 0.29 -0.45 12.15 -0.01 0.25 -0.46 12.16 -0.01 0.22 -0.45 12.18 0 0.19 -0.45 12.2 -0.01 0.17 -0.43 12.21 -0.02 0.14 -0.45 12.22 0 0.11 -0.43 12.24 -0.01 0.09 -0.45 12.25 -0.01 0.05 -0.44 12.27 0 0.03 -0.44 12.27 -4.96 135.11c2.53,31.27 4.4,62.3 5.51,92.98 2.88,-74.3 5.66,-150.53 8.47,-227.76l0.44 -12.1 0.01 -0.19 0.43 -11.94 0.02 -0.37 0.43 -11.74 0.02 -0.59 0.42 -11.56 0.03 -0.79 0.41 -11.37 0.05 -0.97 0.4 -11.19 0.04 -1.17 0.4 -11.02 0.06 -1.36 0.39 -10.84 0.05 -1.54 0.4 -10.68 0.07 -1.72 0.39 -10.48 0.07 -1.94 0.39 -10.3 0.07 -2.11 0.38 -10.11 0.08 -2.32 0.37 -9.93 0.1 -2.51 0.35 -9.73 0.1 -2.7 0.37 -9.54 0.12 -2.92 0.35 -9.34 0.12 -3.1 0.34 -9.16 0.13 -3.31 0.34 -8.96 0.13 -3.49 0.34 -8.77 0.14 -3.7 0.33 -8.57 0.16 -3.9 0.33 -8.36 0.16 -4.1 0.32 -8.18 0.16 -4.28 0.31 -7.99 0.19 -4.48 0.3 -7.79 0.18 -4.67 0.23 -5.62zm201.67 387.84c-6.16,104.73 -12.89,180.15 -28.21,254.97 -15.32,74.79 -39.21,148.85 -79.68,250.77l-6.89 17.35 -1.79 -18.58c-22.09,-226.69 -3.91,-265.79 85.11,-457.4l32.86 -71.03 -1.4 23.92zm-37.08 253.16c14.02,-68.44 20.82,-137.6 26.59,-229.72l-12.75 27.46c-85.66,184.35 -105.09,226.19 -86.12,433.94 36.08,-92.46 57.97,-161.77 72.28,-231.68z"/>
   <path class="fil22" d="M9495.76 7166.9c-77.57,-58.55 -284.31,-64.4 -142.5,-187.49 32.01,-27.79 51.73,-52.11 85.01,-108.31 58.79,-99.32 116.68,-148.35 171.18,-163.91 292.99,-147.1 264.4,325.66 154.33,285.1 -21.01,-7.74 -42.71,-6.88 -63.43,-0.89 -19.46,5.62 -38.07,15.75 -54.45,27.55 -166.12,119.65 185.29,470.02 111.44,684.36 -168.39,280.25 1061.43,951.55 815.39,-107.68 -68.01,-217.25 227.54,47.02 402.35,-586.58 200.86,-727.81 -925.5,-95.58 -1009.89,-179.9 -99.13,-99.06 -30.39,-162.83 192.49,-273.53 341.82,-169.78 853.77,-594.99 562.35,-905.95 -127.84,-136.42 -272.08,-57.86 -420.48,-26.35 -223.83,47.53 -375.84,-2.06 -407.62,-324.07 -8.35,-84.52 0.12,-151.29 -86.98,-165.93 -72.14,-12.13 -154.41,25.89 -197.41,55.39 -212.5,145.74 -84.31,324.12 -80.89,353.65 -50,47.36 -327.41,103.61 -417.77,127.18 -168.12,43.86 -250.31,121.62 -283.47,203.28 -74.27,182.97 92.75,430.29 257.26,313.72 41.71,-29.56 82.51,-75.62 142.11,-110.57 40.66,-23.84 88.67,-37.43 149.82,-27.03 205.24,34.89 213.95,581.86 -24.23,470.28 -57.14,-26.77 -134.1,-52.7 -205.04,-68.33 -157.77,-34.77 -356.7,-26.12 -446.76,66.92 -127.31,131.5 -153.78,556.63 204.88,351.13 97.64,-55.96 395.21,244.32 332.59,292.04 -164.31,135.57 -368.95,110.65 -525.67,82.01 -364.16,-66.54 -408.76,80.57 -144.03,307.09 78.76,67.4 -18.79,267.84 -48.62,332.26 -77.11,166.44 -9.6,315.34 171.3,318.24 44.79,0.72 1282.19,-674.82 806.74,-1033.68z"/>
  </g>
 </g>
</svg>
